<?xml version="1.0" encoding="UTF-8"?>
<!-- Generated by Pixelmator Pro 3.8 -->
<svg width="329" height="67" viewBox="0 0 329 67" xmlns="http://www.w3.org/2000/svg">
    <g id="Group">
        <path id="Path" fill="#ffffff" stroke="none" d="M 190.190002 25.540001 C 192 25.5401 193.589996 25.9496 194.949997 26.769501 C 195.985001 27.3964 196.830994 28.2118 197.520004 29.224602 L 197.520004 26.049801 L 202.419998 26.049801 L 202.360001 46 C 202.360001 47.839901 201.899994 49.460098 200.979996 50.870098 C 200.059998 52.280102 198.770004 53.370201 197.119995 54.160198 C 195.470001 54.950199 193.570007 55.339802 191.429993 55.339802 C 189.669998 55.339802 188.059998 55.069698 186.589996 54.5098 C 185.119995 53.959801 183.899994 53.179798 182.940002 52.169899 C 181.981003 51.16 181.360001 50.000198 181.070007 48.690399 L 186.100006 48.690399 C 186.240005 49.160301 186.559998 49.580002 187.070007 49.959999 C 187.570007 50.339901 188.199997 50.639599 188.949997 50.849602 C 189.699997 51.059601 190.509995 51.169899 191.399994 51.169899 C 192.539993 51.169899 193.559998 50.960201 194.460007 50.5303 C 195.360001 50.1003 196.059998 49.499699 196.570007 48.7197 C 197.080002 47.9398 197.330002 47.0396 197.330002 46.0098 L 197.330002 44.730499 L 197.380005 43.200199 C 196.720001 44.119999 195.919998 44.889801 194.949997 45.4697 C 193.589996 46.2897 192 46.7001 190.190002 46.700199 C 188.279999 46.700199 186.580002 46.249802 185.089996 45.339802 C 183.600006 44.429901 182.440002 43.179901 181.610001 41.580101 C 180.779999 39.980099 180.369995 38.160099 180.369995 36.120098 C 180.369995 34.0802 180.779999 32.2603 181.610001 30.650398 C 182.440002 29.040398 183.600006 27.7896 185.089996 26.889603 C 186.580002 25.9897 188.279999 25.540001 190.190002 25.540001 Z M 100.190002 25.549801 C 101.989998 25.5499 103.550003 25.8699 104.879997 26.5098 L 104.879997 26.519501 C 106.209999 27.1595 107.230003 28.0798 107.940002 29.2598 C 108.650002 30.4398 109.010002 31.840202 109.010002 33.450199 L 109.010002 47.980499 L 104 47.980499 L 104 45.089802 C 103.400002 46.0798 102.620003 46.880199 101.650002 47.450199 C 100.471001 48.150101 99.080299 48.499901 97.480499 48.5 C 96.080498 48.5 94.829697 48.2299 93.719704 47.669899 C 92.609901 47.109901 91.749802 46.349998 91.129898 45.370098 C 90.509903 44.390099 90.200203 43.259602 90.200203 42.059601 C 90.200302 40.859699 90.500397 39.759899 91.110397 38.75 C 91.720299 37.750099 92.570396 36.9202 93.650398 36.2803 C 94.730202 35.6404 95.969803 35.240101 97.349602 35.080101 L 102.720001 34.480499 C 103.120003 34.440498 103.43 34.290001 103.650002 34.040001 C 103.800003 33.869999 103.889999 33.609501 103.959999 33.309601 L 103.959999 32.940399 C 103.959999 32.290401 103.809998 31.709702 103.5 31.2197 C 103.190002 30.729797 102.75 30.3498 102.169998 30.089798 C 101.599998 29.819901 100.93 29.690399 100.129997 29.690399 C 99.330002 29.690399 98.630203 29.810101 98.030296 30.040001 C 97.430298 30.27 96.959602 30.5998 96.599602 31.0098 C 96.249702 31.419701 96.029999 31.879898 95.959999 32.379902 L 90.969704 32.379902 C 91.119698 31.079903 91.600403 29.909901 92.400398 28.879898 C 93.200302 27.850098 94.269897 27.030399 95.599602 26.440399 C 96.929604 25.850403 98.390404 25.549801 100.190002 25.549801 Z M 256.51001 25.540001 C 258.679993 25.540001 260.649994 26.040001 262.399994 27.040001 C 264.149994 28.040001 265.529999 29.410301 266.529999 31.160202 C 267.529999 32.900002 268.029999 34.860001 268.029999 37.0098 C 268.029999 39.159801 267.529999 41.110401 266.529999 42.860401 C 265.529999 44.610199 264.160004 45.980499 262.399994 46.980499 C 260.640015 47.980499 258.670013 48.480499 256.51001 48.480499 C 254.350006 48.4804 252.380005 47.9804 250.630005 46.980499 C 248.880005 45.980499 247.5 44.610199 246.5 42.860401 C 245.5 41.120399 245 39.159801 245 37.0098 C 245 34.859901 245.5 32.910099 246.5 31.160202 C 247.5 29.410202 248.880005 28.040001 250.630005 27.040001 C 252.380005 26.0401 254.339996 25.5401 256.51001 25.540001 Z M 320.649994 25.549801 C 322.220001 25.5499 323.600006 25.890099 324.779999 26.580101 C 325.959991 27.260002 326.880005 28.25 327.540009 29.549801 L 327.549988 29.580101 C 328.200012 30.870003 328.529999 32.4198 328.529999 34.2197 L 328.529999 48 L 323.5 48 L 323.5 34.9902 C 323.5 33.930199 323.320007 33.029999 322.959991 32.290001 C 322.600006 31.549999 322.089996 30.979797 321.420013 30.589798 C 320.75 30.199898 319.949005 30 319.019989 30 C 318.029999 30.000099 317.140015 30.220001 316.369995 30.669899 C 315.600006 31.1199 315 31.739899 314.579987 32.549801 C 314.160004 33.359798 313.950012 34.269901 313.950012 35.299801 L 313.950012 47.9902 L 308.899994 47.9902 L 308.899994 26.070297 L 313.799988 26.070297 L 313.799988 29.2803 C 314.429993 28.220299 315.23999 27.3605 316.25 26.730499 C 317.5 25.940498 318.970001 25.549801 320.649994 25.549801 Z M 168.820007 25.540001 C 170.389999 25.5401 171.770004 25.880402 172.949997 26.570297 L 172.960007 26.599602 C 174.139999 27.279602 175.070007 28.2803 175.720001 29.570297 C 176.369995 30.860298 176.699997 32.41 176.699997 34.209999 L 176.699997 47.9902 L 171.669998 47.9902 L 171.669998 34.980499 C 171.669998 33.920601 171.490005 33.020199 171.130005 32.2803 C 170.770004 31.540298 170.259995 30.9701 169.589996 30.580101 C 168.919998 30.190201 168.119995 29.990299 167.190002 29.9902 C 166.199997 29.9902 165.309998 30.210197 164.539993 30.660202 C 163.770004 31.110199 163.169998 31.730103 162.75 32.540001 C 162.330002 33.349998 162.119995 34.260101 162.119995 35.290001 L 162.119995 47.980499 L 157.070007 47.980499 L 157.070007 26.059601 L 161.970001 26.059601 L 161.970001 29.269501 C 162.600006 28.209602 163.410004 27.349701 164.419998 26.7197 C 165.669998 25.929802 167.139999 25.540001 168.820007 25.540001 Z M 91.849602 18.009796 L 91.849602 22.830101 L 82.599602 22.830101 L 82.599602 47.980499 L 77.290001 47.980499 L 77.290001 22.830101 L 68 22.830101 L 68 18.009796 Z M 151.839996 26.059601 L 151.839996 47.9697 L 146.789993 47.9697 L 146.789993 26.059601 Z M 278.48999 20.709999 L 278.48999 26.059601 L 284.309998 26.059601 L 284.290009 30.450199 L 278.470001 30.450199 L 278.48999 41.5098 C 278.48999 42.109798 278.690002 42.610001 279.079987 43 C 279.470001 43.389999 279.970001 43.589802 280.570007 43.589802 L 284.290009 43.589802 L 284.290009 47.980499 L 279.559998 47.980499 C 278.390015 47.9804 277.329987 47.730202 276.399994 47.230499 C 275.470001 46.730499 274.73999 46.0303 274.220001 45.150398 C 273.700012 44.260502 273.440002 43.260201 273.440002 42.150398 L 273.420013 30.440399 L 269.570007 30.440399 L 269.589996 26.049801 L 271.98999 26.049801 C 272.540009 26.049801 272.970001 25.889801 273.299988 25.549801 C 273.619995 25.219803 273.790009 24.789803 273.790009 24.2598 L 273.790009 20.709999 Z M 303.679993 26.059601 L 303.679993 47.9697 L 298.630005 47.9697 L 298.630005 26.059601 Z M 119.150002 18.009796 L 119.150002 47.9697 L 114.099998 47.9697 L 114.099998 18.009796 Z M 129.550003 18.009796 L 129.550003 35.820301 L 138.110001 26.059601 L 143.960999 26.059601 L 135.089996 36.2803 L 144.360001 47.9697 L 138.220001 47.9697 L 129.550003 37.099602 L 129.550003 47.9697 L 124.5 47.9697 L 124.5 18.009796 Z M 226.339996 18.009796 L 226.339996 31.599602 L 238.710007 18.009796 L 245.102005 18.009796 L 231.949997 32.450199 L 245.389999 47.9697 L 238.800003 47.9697 L 226.339996 33.669899 L 226.339996 47.9697 L 221.139999 47.9697 L 221.139999 18.009796 Z M 293.26001 18.009796 L 293.26001 47.9697 L 288.209991 47.9697 L 288.209991 18.009796 Z M 98.559601 38.2197 C 97.929703 38.3097 97.369598 38.499901 96.889603 38.799801 C 96.409798 39.0998 96.029701 39.489799 95.759804 39.9697 C 95.479797 40.449699 95.349602 40.959999 95.349602 41.540001 C 95.349602 42.119999 95.5103 42.650398 95.820297 43.110401 C 96.140297 43.570202 96.580498 43.929798 97.150398 44.179699 C 97.720299 44.4296 98.380203 44.549801 99.120102 44.549801 C 100.080002 44.549801 100.919998 44.349899 101.660004 43.959999 C 102.389999 43.57 102.959999 43.009998 103.360001 42.290001 C 103.760002 41.570099 103.959999 40.740101 103.959999 39.7803 L 103.949997 39.790001 L 103.949997 37.589802 Z M 256.519989 30.0303 C 255.300003 30.030399 254.210007 30.3302 253.259995 30.910202 C 252.320007 31.490101 251.580002 32.3102 251.050003 33.370098 C 250.520004 34.43 250.259995 35.649899 250.259995 37.0098 C 250.259995 38.369701 250.520004 39.569901 251.050003 40.629902 C 251.570007 41.679798 252.309998 42.509899 253.259995 43.089802 C 254.210007 43.679798 255.300003 43.9697 256.519989 43.9697 C 257.73999 43.9697 258.829987 43.6698 259.779999 43.089802 C 260.720001 42.509899 261.459991 41.6898 261.98999 40.629902 C 262.519989 39.569901 262.779999 38.3797 262.779999 37.0098 C 262.779999 35.6399 262.519989 34.429798 261.98999 33.379902 C 261.470001 32.329899 260.730011 31.509899 259.779999 30.919899 C 258.839996 30.329903 257.73999 30.0303 256.519989 30.0303 Z M 191.470001 29.830101 C 190.300003 29.830101 189.270004 30.090202 188.369995 30.620102 C 187.470001 31.150101 186.770004 31.889801 186.289993 32.849602 C 185.800003 33.799599 185.559998 34.900101 185.559998 36.120098 C 185.559998 37.34 185.800003 38.429699 186.289993 39.389599 C 186.779999 40.3396 187.470001 41.079601 188.369995 41.599602 C 189.270004 42.119598 190.320007 42.379799 191.470001 42.379902 C 192.619995 42.379902 193.649994 42.119598 194.550003 41.599602 C 195.449997 41.079601 196.149994 40.349602 196.639999 39.389599 C 197.130005 38.439701 197.389999 37.349998 197.399994 36.120098 C 197.389999 34.900101 197.130005 33.809601 196.639999 32.849602 C 196.139999 31.889801 195.449997 31.150002 194.550003 30.620102 C 193.649994 30.090202 192.639999 29.830101 191.470001 29.830101 Z M 143.970001 26.059601 L 143.960999 26.059601 L 143.970001 26.049801 Z M 152.009995 18.009796 L 152.009995 22.910202 L 146.619995 22.910202 L 146.619995 18.009796 Z M 303.850006 18.009796 L 303.850006 22.910202 L 298.459991 22.910202 L 298.459991 18.009796 Z M 245.110001 18.009796 L 245.102005 18.009796 L 245.110001 18 Z"/>
        <path id="path1" fill="#ffffff" stroke="none" d="M 30 18.000298 L 30 48.000301 L 36 54.000301 L 36 12.000504 Z"/>
        <path id="path2" fill="#ffffff" stroke="none" d="M 42 6 L 42 60 L 48 66 L 48 0 Z"/>
    </g>
    <radialGradient id="radialGradient1" cx="30" cy="18" r="30" fx="30" fy="18" gradientUnits="userSpaceOnUse">
        <stop offset="0.00344" stop-color="#fd4c58" stop-opacity="1"/>
        <stop offset="0.45568" stop-color="#d113eb" stop-opacity="1"/>
        <stop offset="1" stop-color="#7d45f8" stop-opacity="1"/>
    </radialGradient>
    <path id="path3" fill="url(#radialGradient1)" stroke="none" d="M 30 48 L 0 48 L 0 18 L 30 18 L 15 33 Z"/>
</svg>
