<svg fill="none" height="66" viewBox="0 0 329 66" width="329" xmlns="http://www.w3.org/2000/svg" xmlns:xlink="http://www.w3.org/1999/xlink"><radialGradient id="a" cx="0" cy="0" gradientTransform="matrix(-30 0 0 -30 30 18)" gradientUnits="userSpaceOnUse" r="1"><stop offset=".00344" stop-color="#fd4c58"/><stop offset=".45568" stop-color="#d113eb"/><stop offset="1" stop-color="#7d45f8"/></radialGradient><g fill="#fff"><path d="m190.19 25.54c1.81.0001 3.4.4096 4.76 1.2295 1.035.6269 1.881 1.4423 2.57 2.4551v-3.1748h4.9l-.06 19.9502c0 1.8399-.46 3.4601-1.38 4.8701s-2.21 2.5001-3.86 3.2901-3.55 1.1796-5.69 1.1796c-1.76 0-3.37-.2701-4.84-.83-1.47-.55-2.69-1.33-3.65-2.3399-.959-1.0099-1.58-2.1697-1.87-3.4795h5.03c.14.4699.46.8896.97 1.2696.5.3799 1.13.6796 1.88.8896s1.56.3203 2.45.3203c1.14 0 2.16-.2097 3.06-.6396.9-.43 1.6-1.0306 2.11-1.8106.51-.7799.76-1.6801.76-2.7099v-1.2793l.05-1.5303c-.66.9198-1.46 1.6896-2.43 2.2695-1.36.82-2.95 1.2304-4.76 1.2305-1.91 0-3.61-.4504-5.1-1.3604-1.49-.9099-2.65-2.1599-3.48-3.7597-.83-1.6-1.24-3.42-1.24-5.46 0-2.0399.41-3.8598 1.24-5.4697.83-1.61 1.99-2.8608 3.48-3.7608 1.49-.8999 3.19-1.3496 5.1-1.3496zm-90 .0098c1.8.0001 3.36.3201 4.69.96v.0097c1.33.64 2.35 1.5603 3.06 2.7403s1.07 2.5804 1.07 4.1904v14.5303h-5.01v-2.8907c-.6.99-1.38 1.7904-2.35 2.3604-1.179.6999-2.5697 1.0497-4.1695 1.0498-1.4 0-2.6508-.2701-3.7608-.8301-1.1098-.56-1.9699-1.3199-2.5898-2.2998-.62-.98-.9297-2.1105-.9297-3.3105.0001-1.1999.3002-2.2997.9102-3.3096.6099-.9999 1.46-1.8298 2.54-2.4697 1.0798-.6399 2.3194-1.0402 3.6992-1.2002l5.3704-.5996c.4-.04.71-.1905.93-.4405.15-.17.24-.4305.31-.7304v-.3692c0-.65-.15-1.2307-.46-1.7207-.31-.4899-.75-.8699-1.33-1.1299-.57-.2699-1.24-.3994-2.04-.3994s-1.4998.1197-2.0997.3496c-.6.23-1.0707.5598-1.4307.9698-.3499.4099-.5696.8701-.6396 1.3701h-4.9903c.15-1.3.6307-2.47 1.4307-3.5.7999-1.0298 1.8695-1.8495 3.1992-2.4395 1.33-.59 2.7908-.8906 4.5904-.8906zm156.32-.0098c2.17 0 4.14.5 5.89 1.5s3.13 2.3703 4.13 4.1202c1 1.7398 1.5 3.6998 1.5 5.8496 0 2.15-.5 4.1006-1.5 5.8506-1 1.7498-2.37 3.1201-4.13 4.1201s-3.73 1.5-5.89 1.5c-2.16-.0001-4.13-.5001-5.88-1.5-1.75-1-3.13-2.3703-4.13-4.1201-1-1.74-1.5-3.7006-1.5-5.8506 0-2.1499.5-4.0997 1.5-5.8496 1-1.75 2.38-3.1202 4.13-4.1202 1.75-.9999 3.71-1.4999 5.88-1.5zm64.14.0098c1.57.0001 2.95.3403 4.13 1.0303 1.18.6799 2.1 1.6699 2.76 2.9697l.01.0303c.65 1.2899.98 2.8397.98 4.6396v13.7803h-5.03v-13.0098c0-1.06-.18-1.9602-.54-2.7002s-.87-1.3102-1.54-1.7002c-.67-.3899-1.471-.5898-2.4-.5898-.99.0001-1.88.22-2.65.6699-.77.45-1.37 1.07-1.79 1.8799-.42.81-.63 1.7201-.63 2.75v12.6904h-5.05v-21.9199h4.9v3.21c.63-1.06 1.44-1.9198 2.45-2.5498 1.25-.79 2.72-1.1807 4.4-1.1807zm-151.83-.0098c1.57.0001 2.95.3404 4.13 1.0303l.01.0293c1.18.68 2.11 1.6807 2.76 2.9707s.98 2.8397.98 4.6397v13.7802h-5.03v-13.0097c0-1.0599-.18-1.9603-.54-2.7002-.36-.74-.87-1.3102-1.54-1.7002-.67-.3899-1.47-.5898-2.4-.5899-.99 0-1.88.22-2.65.67s-1.37 1.0699-1.79 1.8798c-.42.81-.63 1.7201-.63 2.75v12.6905h-5.05v-21.9209h4.9v3.2099c.63-1.0599 1.44-1.9198 2.45-2.5498 1.25-.7899 2.72-1.1797 4.4-1.1797zm-76.9704-7.5302v4.8203h-9.25v25.1504h-5.3096v-25.1504h-9.29v-4.8203zm59.9904 8.0498v21.9101h-5.05v-21.9101zm126.65-5.3496v5.3496h5.82l-.02 4.3906h-5.82l.02 11.0596c0 .6.2 1.1002.59 1.4902s.89.5898 1.49.5898h3.72v4.3907h-4.73c-1.17-.0001-2.23-.2503-3.16-.75-.93-.5-1.66-1.2002-2.18-2.0801-.52-.8899-.78-1.8902-.78-3l-.02-11.71h-3.85l.02-4.3906h2.4c.55 0 .98-.16 1.31-.5.32-.33.49-.76.49-1.29v-3.5498zm25.19 5.3496v21.9101h-5.05v-21.9101zm-184.53-8.0498v29.9599h-5.05v-29.9599zm10.4 0v17.8105l8.56-9.7607h5.851l-8.871 10.2207 9.27 11.6894h-6.14l-8.67-10.8701v10.8701h-5.05v-29.9599zm96.79 0v13.5898l12.37-13.5898h6.392l-13.152 14.4404 13.44 15.5195h-6.59l-12.46-14.2998v14.2998h-5.2v-29.9599zm66.92 0v29.9599h-5.05v-29.9599zm-194.7004 20.2099c-.6299.09-1.19.2802-1.67.5801-.4798.3-.8599.69-1.1298 1.1699-.28.48-.4102.9903-.4102 1.5703s.1607 1.1104.4707 1.5704c.32.4598.7602.8194 1.3301 1.0693s1.2298.3701 1.9697.3701c.9599 0 1.7999-.1999 2.5399-.5898.73-.39 1.3-.95 1.7-1.67.4-.7199.6-1.5499.6-2.5097l-.01.0097v-2.2002zm157.9604-8.1894c-1.22.0001-2.31.2999-3.26.8799-.94.5799-1.68 1.4-2.21 2.4599s-.79 2.2798-.79 3.6397.26 2.5601.79 3.6201c.52 1.0499 1.26 1.88 2.21 2.4599.95.59 2.04.8799 3.26.8799s2.31-.2999 3.26-.8799c.94-.5799 1.68-1.4 2.21-2.4599.53-1.06.79-2.2502.79-3.6201s-.26-2.58-.79-3.6299c-.52-1.05-1.26-1.87-2.21-2.46-.94-.59-2.04-.8896-3.26-.8896zm-65.05-.2002c-1.17 0-2.2.2601-3.1.79-.9.53-1.6 1.2697-2.08 2.2295-.49.95-.73 2.0505-.73 3.2705 0 1.2199.24 2.3096.73 3.2695.49.95 1.18 1.69 2.08 2.21s1.95.7802 3.1.7803c1.15 0 2.18-.2603 3.08-.7803s1.6-1.25 2.09-2.21c.49-.9499.75-2.0396.76-3.2695-.01-1.22-.27-2.3105-.76-3.2705-.5-.9598-1.19-1.6996-2.09-2.2295s-1.91-.79-3.08-.79zm-47.5-3.7705h-.009l.009-.0098zm8.04-8.0498v4.9004h-5.39v-4.9004zm151.84 0v4.9004h-5.39v-4.9004zm-58.74 0h-.008l.008-.0098z"/><path d="m30 18.0003v30l6 6v-41.9998z"/><path d="m42 6v54l6 6v-66z"/></g><path d="m30 48h-30v-30h30l-15 15z" fill="url(#a)"/></svg>