<svg fill="none" height="83" viewBox="0 0 329 83" width="329" xmlns="http://www.w3.org/2000/svg" xmlns:xlink="http://www.w3.org/1999/xlink"><radialGradient id="a" cx="0" cy="0" gradientTransform="matrix(-30 0 0 -30 30 18)" gradientUnits="userSpaceOnUse" r="1"><stop offset=".00344" stop-color="#fd4c58"/><stop offset=".45568" stop-color="#d113eb"/><stop offset="1" stop-color="#7d45f8"/></radialGradient><g fill="#000"><path d="m81.8311 68.7559 2.3574 6.3623h.0097l2.168-6.3623h2.9365l-4.2558 10.8671c-.2997.779-.7384 1.3988-1.3076 1.8682-.5693.4694-1.2689.6992-2.0879.6992h-1.8282v-2.5879h1.6377c.2296 0 .4196-.0496.5694-.1494.1497-.0998.2798-.2495.3896-.459l.2998-.6093-3.9052-9.6289zm-10.8975-3.7559v5.1836c.3096-.4494.669-.8493 1.1484-1.1289.6093-.3595 1.3285-.539 2.1475-.5391.869 0 1.6582.2398 2.3574.6992.6992.4695 1.2489 1.1089 1.6485 1.918.3994.809.5986 1.7283.5986 2.7471-.0001 1.0185-.1993 1.9372-.5986 2.7461-.3996.819-.9493 1.4585-1.6485 1.9179-.6992.4695-1.4882.6993-2.3672.6993-.819 0-1.5382-.1796-2.1474-.5391-.4795-.2697-.8388-.6695-1.1485-1.1289v1.4287h-2.917v-14.0039zm122.2794-.25c.979 0 1.858.1798 2.617.5293.759.3496 1.359.8395 1.788 1.4687.43.6193.66 1.3483.68 2.1573h-3.097c0-.2997-.09-.5699-.25-.8096-.17-.2395-.4-.419-.689-.5488-.29-.1398-.639-.2002-1.019-.2002-.379 0-.719.0706-1.009.1904-.289.1199-.52.2998-.679.5195-.16.2297-.24.4897-.24.7891.001.3394.111.6092.331.8389.219.2295.519.3789.888.4687l2.377.4903c.709.1298 1.329.3995 1.878.789.549.3995.979.8886 1.278 1.4678v-.0195c.31.5893.46 1.2287.46 1.9179 0 .8489-.23 1.6082-.679 2.2774-.45.669-1.079 1.1986-1.878 1.5781-.809.3794-1.738.5693-2.767.5693s-1.948-.19-2.747-.5595c-.799-.3696-1.428-.8995-1.888-1.5586-.459-.6591-.699-1.438-.709-2.3067h3.097c0 .3595.099.6794.289.959s.46.4889.81.6387c.349.1498.749.2295 1.178.2295.43 0 .799-.0695 1.119-.1992.319-.1299.559-.3198.739-.5694s.269-.5293.269-.8388c0-.3895-.119-.7091-.359-.9688s-.569-.4401-.979-.54l-2.517-.5196c-.659-.1398-1.238-.3895-1.737-.749-.5-.3596-.89-.819-1.16-1.3584-.269-.5493-.409-1.159-.409-1.8281 0-.8389.219-1.5784.639-2.2276.429-.6491 1.019-1.1578 1.778-1.5273s1.618-.5498 2.597-.5498zm-78.94.25v2.707h-7.171v2.9659h6.493v2.6171h-6.493v3.0166h7.372v2.6973h-10.388v-14.0039zm20.328 0c.888 0 1.687.1593 2.386.4688.699.3096 1.24.7492 1.629 1.3085.39.5594.579 1.1991.579 1.9082 0 .6193-.149 1.169-.439 1.6485-.29.4793-.7.8585-1.209 1.1181-.19.0999-.41.1599-.619.2198.289.0799.56.1797.809.3095h.01c.569.3096 1.018.7293 1.338 1.2784.32.5493.479 1.1692.479 1.8584 0 .7491-.199 1.4185-.609 2.0078-.409.5892-.979 1.0483-1.718 1.3779s-1.578.5-2.516.5h-6.343v-14.0039zm12.875 0c1.008 0 1.897.1793 2.667.5488.769.3696 1.358.8894 1.778 1.5586.419.6692.629 1.4285.629 2.3174s-.21 1.6775-.64 2.3467c-.429.6692-1.028 1.1988-1.807 1.5683h-.01c-.14.07-.3.1305-.46.1905l3.196 5.4736h-3.535l-2.837-5.1045h-2.018v5.1045h-3.096v-14.0039zm14.743 0 5.104 14.0039h-3.087l-1.058-3.0869h-5.195l-.988 3.0869h-3.146l5.004-14.0039zm9.509 0v14.0039h-3.197v-14.0039zm5.434 0 6.013 9.4688h.01v-9.4688h2.827v14.0039h-3.047l-5.993-9.4697v9.4697h-2.826v-14.0039zm-75.464 0v9.3594c0 .8788-.2 1.6678-.609 2.3769-.41.7091-.969 1.2587-1.6779 1.6582-.7091.3995-1.5183.5996-2.4072.5996h-2.3672v-2.8476h1.9571c.3994 0 .7492-.0794 1.0488-.249.3094-.1697.5392-.3997.709-.709.1697-.3096.2499-.6595.25-1.0489v-9.1396zm25.271 0v2.7764h-4.125v11.2177h-3.097v-11.2177h-4.155v-2.7764zm4.415 8.0703v3.5859h2.867c.419 0 .799-.07 1.118-.2197.32-.1498.57-.3494.75-.6191v.0195c.18-.2696.27-.5693.27-.9287 0-.3595-.09-.6793-.27-.959s-.44-.4996-.76-.6494c-.329-.1497-.699-.2295-1.108-.2295zm-57.9836-1.9678c-.4893.0001-.9186.12-1.2881.3496-.3696.2298-.6594.56-.8691.9795-.2096.4194-.3096.8885-.3096 1.4375 0 .5494.0998 1.0297.3096 1.4493.2097.4193.4996.7488.8691.9785.3695.2296.8088.3495 1.2881.3496.4793 0 .9088-.12 1.2783-.3496.3694-.2297.6594-.5593.8692-.9785.2097-.4195.3095-.8893.3095-1.4385 0-.5493-.0999-1.0288-.3095-1.4483-.2098-.4195-.4996-.7497-.8692-.9795-.3695-.2295-.7891-.3496-1.2783-.3496zm86.9006-2.4765-1.609 4.9443h3.706l-1.717-4.9443-.19-.8994zm-15.862-1.0889v3.8652h2.787c.429 0 .809-.0795 1.128-.2392.32-.1598.57-.39.74-.6797v.0098c.169-.2896.259-.629.26-1.0284 0-.3995-.09-.7396-.26-1.0293-.17-.2895-.42-.5091-.74-.6689-.319-.1498-.699-.2295-1.128-.2295zm-13.055-.1904v3.4463h2.747c.379 0 .719-.08 1.009-.2198.299-.1398.519-.3396.689-.6093s.25-.5892.25-.9287-.09-.6391-.25-.8887c-.17-.2597-.4-.45-.689-.5899-.29-.1397-.63-.2099-1.009-.2099zm58.806-41.8067c1.81.0001 3.4.4096 4.76 1.2295 1.035.6269 1.881 1.4423 2.57 2.4551v-3.1748h4.9l-.06 19.9502c0 1.8399-.46 3.4601-1.38 4.8701s-2.21 2.5001-3.86 3.2901-3.55 1.1796-5.69 1.1796c-1.76 0-3.37-.2701-4.84-.83-1.47-.55-2.69-1.33-3.65-2.3399-.959-1.0099-1.58-2.1697-1.87-3.4795h5.03c.14.4699.46.8896.97 1.2696.5.3799 1.13.6796 1.88.8896s1.56.3203 2.45.3203c1.14 0 2.16-.2097 3.06-.6396.9-.43 1.6-1.0306 2.11-1.8106.51-.7799.76-1.6801.76-2.7099v-1.2793l.05-1.5303c-.66.9198-1.46 1.6896-2.43 2.2695-1.36.82-2.95 1.2304-4.76 1.2305-1.91 0-3.61-.4504-5.1-1.3604-1.49-.9099-2.65-2.1599-3.48-3.7597-.83-1.6-1.24-3.42-1.24-5.46 0-2.0399.41-3.8598 1.24-5.4697.83-1.61 1.99-2.8608 3.48-3.7608 1.49-.8999 3.19-1.3496 5.1-1.3496zm-90 .0098c1.8.0001 3.36.3201 4.69.96v.0097c1.33.64 2.35 1.5603 3.06 2.7403s1.07 2.5804 1.07 4.1904v14.5303h-5.01v-2.8907c-.6.99-1.38 1.7904-2.35 2.3604-1.179.6999-2.5697 1.0497-4.1695 1.0498-1.4 0-2.6508-.2701-3.7608-.8301-1.1098-.56-1.9699-1.3199-2.5898-2.2998-.62-.98-.9297-2.1105-.9297-3.3105.0001-1.1999.3002-2.2997.9102-3.3096.6099-.9999 1.46-1.8298 2.54-2.4697 1.0798-.6399 2.3194-1.0402 3.6992-1.2002l5.3704-.5996c.4-.04.71-.1905.93-.4405.15-.17.24-.4305.31-.7304v-.3692c0-.65-.15-1.2307-.46-1.7207-.31-.4899-.75-.8699-1.33-1.1299-.57-.2699-1.24-.3994-2.04-.3994s-1.4998.1197-2.0997.3496c-.6.23-1.0707.5598-1.4307.9698-.3499.4099-.5696.8701-.6396 1.3701h-4.9903c.15-1.3.6307-2.47 1.4307-3.5.7999-1.0298 1.8695-1.8495 3.1992-2.4395 1.33-.59 2.7908-.8906 4.5904-.8906zm156.32-.0098c2.17 0 4.14.5 5.89 1.5s3.13 2.3703 4.13 4.1202c1 1.7398 1.5 3.6998 1.5 5.8496 0 2.15-.5 4.1006-1.5 5.8506-1 1.7498-2.37 3.1201-4.13 4.1201s-3.73 1.5-5.89 1.5c-2.16-.0001-4.13-.5001-5.88-1.5-1.75-1-3.13-2.3703-4.13-4.1201-1-1.74-1.5-3.7006-1.5-5.8506 0-2.1499.5-4.0997 1.5-5.8496 1-1.75 2.38-3.1202 4.13-4.1202 1.75-.9999 3.71-1.4999 5.88-1.5zm64.14.0098c1.57.0001 2.95.3403 4.13 1.0303 1.18.6799 2.1 1.6699 2.76 2.9697l.01.0303c.65 1.2899.98 2.8397.98 4.6396v13.7803h-5.03v-13.0098c0-1.06-.18-1.9602-.54-2.7002s-.87-1.3102-1.54-1.7002c-.67-.3899-1.471-.5898-2.4-.5898-.99.0001-1.88.22-2.65.6699-.77.45-1.37 1.07-1.79 1.8799-.42.81-.63 1.7201-.63 2.75v12.6904h-5.05v-21.9199h4.9v3.21c.63-1.06 1.44-1.9198 2.45-2.5498 1.25-.79 2.72-1.1807 4.4-1.1807zm-151.83-.0098c1.57.0001 2.95.3404 4.13 1.0303l.01.0293c1.18.68 2.11 1.6807 2.76 2.9707s.98 2.8397.98 4.6397v13.7802h-5.03v-13.0097c0-1.0599-.18-1.9603-.54-2.7002-.36-.74-.87-1.3102-1.54-1.7002-.67-.3899-1.47-.5898-2.4-.5899-.99 0-1.88.22-2.65.67s-1.37 1.0699-1.79 1.8798c-.42.81-.63 1.7201-.63 2.75v12.6905h-5.05v-21.9209h4.9v3.2099c.63-1.0599 1.44-1.9198 2.45-2.5498 1.25-.7899 2.72-1.1797 4.4-1.1797zm-76.9704-7.5302v4.8203h-9.25v25.1504h-5.3096v-25.1504h-9.29v-4.8203zm59.9904 8.0498v21.9101h-5.05v-21.9101zm126.65-5.3496v5.3496h5.82l-.02 4.3906h-5.82l.02 11.0596c0 .6.2 1.1002.59 1.4902s.89.5898 1.49.5898h3.72v4.3907h-4.73c-1.17-.0001-2.23-.2503-3.16-.75-.93-.5-1.66-1.2002-2.18-2.0801-.52-.8899-.78-1.8902-.78-3l-.02-11.71h-3.85l.02-4.3906h2.4c.55 0 .98-.16 1.31-.5.32-.33.49-.76.49-1.29v-3.5498zm25.19 5.3496v21.9101h-5.05v-21.9101zm-184.53-8.0498v29.9599h-5.05v-29.9599zm10.4 0v17.8105l8.56-9.7607h5.851l-8.871 10.2207 9.27 11.6894h-6.14l-8.67-10.8701v10.8701h-5.05v-29.9599zm96.79 0v13.5898l12.37-13.5898h6.392l-13.152 14.4404 13.44 15.5195h-6.59l-12.46-14.2998v14.2998h-5.2v-29.9599zm66.92 0v29.9599h-5.05v-29.9599zm-194.7004 20.2099c-.6299.09-1.19.2802-1.67.5801-.4798.3-.8599.69-1.1298 1.1699-.28.48-.4102.9903-.4102 1.5703s.1607 1.1104.4707 1.5704c.32.4598.7602.8194 1.3301 1.0693s1.2298.3701 1.9697.3701c.9599 0 1.7999-.1999 2.5399-.5898.73-.39 1.3-.95 1.7-1.67.4-.7199.6-1.5499.6-2.5097l-.01.0097v-2.2002zm157.9604-8.1894c-1.22.0001-2.31.2999-3.26.8799-.94.5799-1.68 1.4-2.21 2.4599s-.79 2.2798-.79 3.6397.26 2.5601.79 3.6201c.52 1.0499 1.26 1.88 2.21 2.4599.95.59 2.04.8799 3.26.8799s2.31-.2999 3.26-.8799c.94-.5799 1.68-1.4 2.21-2.4599.53-1.06.79-2.2502.79-3.6201s-.26-2.58-.79-3.6299c-.52-1.05-1.26-1.87-2.21-2.46-.94-.59-2.04-.8896-3.26-.8896zm-65.05-.2002c-1.17 0-2.2.2601-3.1.79-.9.53-1.6 1.2697-2.08 2.2295-.49.95-.73 2.0505-.73 3.2705 0 1.2199.24 2.3096.73 3.2695.49.95 1.18 1.69 2.08 2.21s1.95.7802 3.1.7803c1.15 0 2.18-.2603 3.08-.7803s1.6-1.25 2.09-2.21c.49-.9499.75-2.0396.76-3.2695-.01-1.22-.27-2.3105-.76-3.2705-.5-.9598-1.19-1.6996-2.09-2.2295s-1.91-.79-3.08-.79zm-47.5-3.7705h-.009l.009-.0098zm8.04-8.0498v4.9004h-5.39v-4.9004zm151.84 0v4.9004h-5.39v-4.9004zm-58.74 0h-.008l.008-.0098z"/><path d="m30 18.0003v30l6 6v-41.9998z"/><path d="m42 6v54l6 6v-66z"/></g><path d="m30 48h-30v-30h30l-15 15z" fill="url(#a)"/></svg>