<?xml version="1.0" encoding="utf-8"?>
<!-- Generator: Adobe Illustrator 18.1.1, SVG Export Plug-In . SVG Version: 6.00 Build 0)  -->
<svg version="1.1" id="Layer_1" xmlns="http://www.w3.org/2000/svg" xmlns:xlink="http://www.w3.org/1999/xlink" x="0px" y="0px"
	 viewBox="0 0 516.5 53.2" enable-background="new 0 0 516.5 53.2" xml:space="preserve">
<g>
	<path fill="#FF7616" d="M410.4,11.6h8v1.2h-6.7v3.8h6v1.2h-6v3.8h6.8v1.2h-8V11.6H410.4z"/>
	<path fill="#FF7616" d="M425,11.4h1.2l5,11.1h-1.3l-1.3-2.9h-5.9l-1.3,2.9H420L425,11.4z M428.1,18.5l-2.5-5.6l-2.5,5.6H428.1z"/>
	<path fill="#FF7616" d="M433.4,11.6h4.7c1.3,0,2.5,0.4,3.1,1c0.5,0.5,0.8,1.3,0.8,2.2l0,0c0,1.8-1.3,2.9-3,3.1l3.4,4.5h-1.4
		l-3.1-4.2h-3.1v4.3h-1.2v-11H433.4z M437.9,17.2c1.7,0,2.9-0.8,2.9-2.2l0,0c0-1.3-1-2.2-2.8-2.2h-3.4v4.5
		C434.7,17.2,437.9,17.2,437.9,17.2z"/>
	<path fill="#FF7616" d="M444.7,11.6h1.2v9.8h6.2v1.2h-7.5v-11H444.7z"/>
	<path fill="#FF7616" d="M455.9,18.3l-4.6-6.7h1.6l3.7,5.5l3.8-5.5h1.4l-4.6,6.7v4.3h-1.3V18.3z"/>
	<path fill="#FF7616" d="M468.5,11.6h4.7c1.3,0,2.2,0.4,2.9,0.9c0.4,0.5,0.7,1,0.7,1.7l0,0c0,1.4-0.9,2.2-1.7,2.5
		c1.3,0.4,2.4,1.2,2.4,2.6l0,0c0,1.8-1.6,3-3.9,3h-5V11.6z M475.4,14.5c0-1-0.9-1.8-2.5-1.8h-3.4v3.8h3.3
		C474.4,16.4,475.4,15.8,475.4,14.5L475.4,14.5z M473,17.6h-3.5v3.9h3.7c1.7,0,2.8-0.8,2.8-2l0,0C476.1,18.3,475,17.6,473,17.6z"/>
	<path fill="#FF7616" d="M479.9,11.6h1.2v11h-1.2V11.6z"/>
	<path fill="#FF7616" d="M484.3,11.6h4.7c1.3,0,2.5,0.4,3.1,1c0.5,0.5,0.8,1.3,0.8,2.2l0,0c0,1.8-1.3,2.9-3,3.1l3.4,4.5h-1.6
		l-3.1-4.3h-3.1v4.3h-1.2V11.6L484.3,11.6z M488.9,17.2c1.7,0,2.9-0.8,2.9-2.2l0,0c0-1.3-1-2.2-2.8-2.2h-3.4v4.5
		C485.6,17.2,488.9,17.2,488.9,17.2z"/>
	<path fill="#FF7616" d="M495.7,11.6h3.8c3.4,0,5.9,2.4,5.9,5.5l0,0c0,3.1-2.4,5.5-5.9,5.5h-3.8V11.6z M496.9,12.8v8.6h2.6
		c2.8,0,4.6-1.8,4.6-4.3l0,0c0-2.5-1.8-4.3-4.6-4.3C499.5,12.8,496.9,12.8,496.9,12.8z"/>
</g>
<g>
	<g>
		<path fill="#FFFFFF" d="M71.3,24.6h4.5v8.9l8.2-8.9h5.4l-8.4,8.6l8.6,11.7h-5.4L78,36.3l-2.3,2.4v6.2h-4.5V24.6H71.3z"/>
		<path fill="#FFFFFF" d="M88,37.2L88,37.2c0-4.5,3.6-8.1,8.5-8.1c4.8,0,8.4,3.6,8.4,8l0,0c0,4.5-3.6,8.1-8.5,8.1
			C91.6,45.2,88,41.6,88,37.2z M100.5,37.2L100.5,37.2c0-2.3-1.7-4.4-4.1-4.4c-2.6,0-4,1.9-4,4.2l0,0c0,2.3,1.7,4.2,4.1,4.2
			C98.9,41.5,100.5,39.5,100.5,37.2z"/>
		<path fill="#FFFFFF" d="M106.4,40.4v-7.3h-1.8v-3.7h1.8v-4h4.4v4h3.7v3.7h-3.6v6.7c0,1,0.4,1.5,1.4,1.5c0.8,0,1.5-0.3,2.2-0.5v3.5
			c-0.9,0.5-2.1,0.9-3.5,0.9C108.2,45.1,106.4,44,106.4,40.4z"/>
		<path fill="#FFFFFF" d="M115.6,23.7h4.4v21.1h-4.4V23.7z"/>
		<path fill="#FFFFFF" d="M121.9,23.7h4.6v3.9h-4.6V23.7z M122.1,29.4h4.4v15.6h-4.4V29.4z"/>
		<path fill="#FFFFFF" d="M128.2,29.4h4.4v2.2c1-1.3,2.3-2.4,4.5-2.4c3.3,0,5.3,2.2,5.3,5.8v10H138v-8.6c0-2.1-1-3.2-2.7-3.2
			s-2.7,1-2.7,3.2v8.6h-4.4V29.4z"/>
		<path fill="#FFFFFF" d="M150,34.8L150,34.8c0-5.8,4.4-10.5,10.5-10.5c3.9,0,6.2,1.3,8,3.1l-2.8,3.2c-1.5-1.4-3.2-2.3-5.1-2.3
			c-3.5,0-5.9,2.8-5.9,6.3l0,0c0,3.5,2.4,6.4,5.9,6.4c2.3,0,3.7-0.9,5.3-2.3l2.8,2.8c-2.1,2.2-4.4,3.6-8.4,3.6
			C154.3,45.2,150,40.6,150,34.8z"/>
		<path fill="#FFFFFF" d="M168.3,37.2L168.3,37.2c0-4.5,3.6-8.1,8.5-8.1c4.8,0,8.4,3.6,8.4,8l0,0c0,4.5-3.6,8.1-8.5,8.1
			C171.9,45.2,168.3,41.6,168.3,37.2z M180.8,37.2L180.8,37.2c0-2.3-1.7-4.4-4.1-4.4c-2.6,0-4,1.9-4,4.2l0,0c0,2.3,1.7,4.2,4.1,4.2
			C179.3,41.5,180.8,39.5,180.8,37.2z"/>
		<path fill="#FFFFFF" d="M185.9,29.4h4.4v2.2c1-1.3,2.3-2.4,4.5-2.4c3.3,0,5.3,2.2,5.3,5.8v10h-4.4v-8.6c0-2.1-1-3.2-2.7-3.2
			c-1.7,0-2.7,1-2.7,3.2v8.6h-4.4V29.4z"/>
		<path fill="#FFFFFF" d="M202.5,33.1h-1.9v-3.6h1.8v-1c0-1.7,0.4-3,1.3-3.7c0.8-0.8,2.1-1.2,3.6-1.2c1.4,0,2.3,0.1,3.1,0.4v3.6
			c-0.6-0.3-1.3-0.4-2.1-0.4c-1,0-1.5,0.5-1.5,1.7v0.6h3.6v3.6h-3.5v11.7h-4.4V33.1z"/>
	</g>
</g>
<g>
	<polygon fill="#4BB8F6" points="13.7,5.7 13.7,24.5 23.1,15.1 	"/>
	<polygon fill="#FF7616" points="13.1,14.7 13.1,5.7 4.1,14.7 	"/>
	<polygon fill="#4BB8F6" points="23.2,45.3 23.2,36.3 14.2,45.3 	"/>
	<polygon fill="#4BB8F6" points="23.6,35 53.3,5.3 43.5,5.3 34,5.3 13.9,25.4 	"/>
	<polygon fill="#4BB8F6" points="23.9,45.3 32.9,45.3 23.9,36.3 	"/>
	<polygon fill="#4BB8F6" points="33.8,25.8 24.1,35.5 34,45.3 53.3,45.3 	"/>
	<polygon fill="#4BB8F6" points="13.7,44.9 23.1,35.5 13.7,26.2 	"/>
</g>
<rect x="396.2" y="29.1" fill="#FF7616" width="120.3" height="24.1"/>
<g>
	<path fill="#FFFFFF" d="M411.4,36.9h3.8c1.1,0,1.9,0.3,2.4,0.9c0.5,0.5,0.7,1.1,0.7,1.9v0c0,1.4-0.7,2.2-1.8,2.6l2.1,3h-2.2
		l-1.8-2.7h-1.5v2.7h-1.8V36.9z M415.2,41c0.9,0,1.4-0.5,1.4-1.2v0c0-0.8-0.6-1.2-1.5-1.2h-1.8V41H415.2z"/>
	<path fill="#FFFFFF" d="M419.8,36.9h6.3v1.6h-4.5v1.7h4v1.6h-4v1.8h4.6v1.6h-6.4V36.9z"/>
	<path fill="#FFFFFF" d="M427.2,41.1L427.2,41.1c0-2.4,1.9-4.4,4.4-4.4c1.5,0,2.4,0.4,3.3,1.2l-1.2,1.4c-0.6-0.5-1.2-0.9-2.2-0.9
		c-1.3,0-2.4,1.2-2.4,2.6v0c0,1.5,1.1,2.7,2.5,2.7c0.7,0,1.3-0.2,1.7-0.5v-1.2h-1.9v-1.6h3.6v3.6c-0.9,0.7-2.1,1.3-3.6,1.3
		C429,45.5,427.2,43.6,427.2,41.1z"/>
	<path fill="#FFFFFF" d="M436.7,36.9h1.8v8.4h-1.8V36.9z"/>
	<path fill="#FFFFFF" d="M439.8,44.1l1.1-1.3c0.8,0.6,1.5,1,2.5,1c0.8,0,1.2-0.3,1.2-0.8v0c0-0.5-0.3-0.7-1.7-1.1
		c-1.7-0.4-2.8-0.9-2.8-2.6v0c0-1.5,1.2-2.5,2.9-2.5c1.2,0,2.3,0.4,3.1,1.1l-1,1.4c-0.7-0.5-1.5-0.8-2.2-0.8c-0.7,0-1.1,0.3-1.1,0.7
		v0c0,0.6,0.4,0.7,1.8,1.1c1.7,0.4,2.7,1.1,2.7,2.5v0c0,1.7-1.3,2.6-3.1,2.6C442.1,45.4,440.8,45,439.8,44.1z"/>
	<path fill="#FFFFFF" d="M449.5,38.6H447v-1.7h7v1.7h-2.6v6.7h-1.8V38.6z"/>
	<path fill="#FFFFFF" d="M455.1,36.9h6.3v1.6h-4.5v1.7h4v1.6h-4v1.8h4.6v1.6h-6.4V36.9z"/>
	<path fill="#FFFFFF" d="M462.8,36.9h3.8c1.1,0,1.9,0.3,2.4,0.9c0.5,0.5,0.7,1.1,0.7,1.9v0c0,1.4-0.7,2.2-1.8,2.6l2.1,3h-2.2
		l-1.8-2.7h-1.5v2.7h-1.8V36.9z M466.5,41c0.9,0,1.4-0.5,1.4-1.2v0c0-0.8-0.6-1.2-1.5-1.2h-1.8V41H466.5z"/>
	<path fill="#FFFFFF" d="M474.5,36.9h1.7l3.9,5.2v-5.2h1.8v8.4h-1.6l-4.1-5.3v5.3h-1.8V36.9z"/>
	<path fill="#FFFFFF" d="M483.3,41.1L483.3,41.1c0-2.4,1.9-4.4,4.5-4.4s4.4,1.9,4.4,4.3v0c0,2.4-1.9,4.3-4.5,4.3
		S483.3,43.5,483.3,41.1z M490.3,41.1L490.3,41.1c0-1.5-1.1-2.7-2.5-2.7s-2.5,1.2-2.5,2.6v0c0,1.4,1.1,2.6,2.5,2.6
		S490.3,42.6,490.3,41.1z"/>
	<path fill="#FFFFFF" d="M492.4,36.9h2l1.7,5.7l1.9-5.7h1.6l1.9,5.7l1.7-5.7h1.9l-2.9,8.5h-1.6l-1.9-5.5l-1.9,5.5h-1.6L492.4,36.9z"
		/>
</g>
<g>
	<path fill="#FFFFFF" d="M224.9,28.2l3.8-3.4c1.6-1.4,2.2-2.3,2.2-3.3c0-1.2-1-2-2.1-2c-1.2,0-2,0.6-2.8,1.8l-0.9-0.6
		c0.9-1.4,1.9-2.2,3.8-2.2c1.9,0,3.3,1.3,3.3,3v0c0,1.5-0.8,2.5-2.7,4.1l-2.8,2.5h5.6v1.1h-7.3V28.2z"/>
	<path fill="#FFFFFF" d="M233.8,24h4.2v1.2h-4.2V24z"/>
	<path fill="#FFFFFF" d="M239.2,27.4l0.9-0.8c0.8,1,1.8,1.6,3.1,1.6c1.3,0,2.3-0.8,2.3-2v0c0-1.3-1.2-2-2.9-2h-0.7l-0.2-0.7l3.3-3.7
		h-5.1v-1.1h6.7v0.9l-3.3,3.7c1.8,0.2,3.5,1,3.5,3v0c0,1.9-1.6,3.2-3.5,3.2C241.3,29.3,240,28.5,239.2,27.4z"/>
	<path fill="#FFFFFF" d="M252.9,18.6h1.1l6.6,8.4v-8.4h1.2v10.5h-0.9l-6.8-8.6v8.6h-1.2V18.6z"/>
	<path fill="#FFFFFF" d="M263.7,25.3L263.7,25.3c0-2.2,1.7-4.1,4-4.1c2.3,0,4,1.8,4,4v0c0,2.2-1.7,4-4.1,4
		C265.3,29.3,263.7,27.5,263.7,25.3z M270.6,25.3L270.6,25.3c0-1.7-1.2-3.1-2.9-3.1c-1.7,0-2.8,1.4-2.8,3v0c0,1.7,1.2,3,2.9,3
		C269.4,28.3,270.6,26.9,270.6,25.3z"/>
	<path fill="#FFFFFF" d="M272.2,21.4h1.3l2.6,6.4l2.6-6.4h1.2l-3.4,7.8h-1L272.2,21.4z"/>
	<path fill="#FFFFFF" d="M280.5,25.3L280.5,25.3c0-2.3,1.6-4.1,3.7-4.1c2.3,0,3.6,1.8,3.6,4.1c0,0.2,0,0.2,0,0.4h-6.1
		c0.2,1.7,1.4,2.6,2.7,2.6c1.1,0,1.8-0.4,2.4-1.1l0.7,0.6c-0.8,0.9-1.7,1.5-3.2,1.5C282.2,29.3,280.5,27.7,280.5,25.3z M286.7,24.8
		c-0.1-1.4-0.9-2.6-2.5-2.6c-1.4,0-2.4,1.1-2.5,2.6H286.7z"/>
	<path fill="#FFFFFF" d="M289.5,21.4h1.2v1.3c0.5-0.8,1.2-1.5,2.5-1.5c1.3,0,2.1,0.7,2.5,1.5c0.6-0.9,1.4-1.5,2.7-1.5
		c1.8,0,2.9,1.2,2.9,3.1v4.8h-1.2v-4.5c0-1.5-0.8-2.3-2-2.3c-1.2,0-2.1,0.9-2.1,2.4v4.5h-1.2v-4.6c0-1.5-0.8-2.3-2-2.3
		s-2.2,1-2.2,2.4v4.4h-1.2V21.4z"/>
	<path fill="#FFFFFF" d="M304.5,27.6v1.5h-1.2V18.2h1.2v4.8c0.6-0.9,1.5-1.7,3-1.7c1.9,0,3.7,1.5,3.7,4v0c0,2.5-1.8,4-3.7,4
		C306.1,29.3,305.1,28.5,304.5,27.6z M310,25.3L310,25.3c0-1.9-1.3-3-2.7-3c-1.4,0-2.8,1.2-2.8,3v0c0,1.8,1.4,3,2.8,3
		C308.8,28.2,310,27.1,310,25.3z"/>
	<path fill="#FFFFFF" d="M312.5,25.3L312.5,25.3c0-2.3,1.6-4.1,3.7-4.1c2.3,0,3.6,1.8,3.6,4.1c0,0.2,0,0.2,0,0.4h-6.2
		c0.2,1.7,1.4,2.6,2.7,2.6c1.1,0,1.8-0.4,2.4-1.1l0.7,0.6c-0.8,0.9-1.7,1.5-3.2,1.5C314.2,29.3,312.5,27.7,312.5,25.3z M318.6,24.8
		c-0.1-1.4-0.9-2.6-2.5-2.6c-1.4,0-2.4,1.1-2.5,2.6H318.6z"/>
	<path fill="#FFFFFF" d="M321.5,21.4h1.2v2c0.6-1.3,1.7-2.2,3.2-2.2v1.2h-0.1c-1.7,0-3.1,1.2-3.1,3.6v3.1h-1.2V21.4z"/>
	<path fill="#FFFFFF" d="M330.7,28.2l3.8-3.4c1.6-1.4,2.2-2.3,2.2-3.3c0-1.2-1-2-2.1-2c-1.2,0-2,0.6-2.8,1.8l-0.9-0.6
		c0.9-1.4,1.9-2.2,3.8-2.2c1.9,0,3.3,1.3,3.3,3v0c0,1.5-0.8,2.5-2.7,4.1l-2.8,2.5h5.6v1.1h-7.3V28.2z"/>
	<path fill="#FFFFFF" d="M339.5,23.9L339.5,23.9c0-3,1.8-5.5,4.5-5.5s4.4,2.5,4.4,5.4v0c0,2.9-1.7,5.4-4.4,5.4
		C341.2,29.3,339.5,26.8,339.5,23.9z M347.2,23.9L347.2,23.9c0-2.3-1.3-4.4-3.2-4.4c-2,0-3.2,2-3.2,4.3v0c0,2.3,1.3,4.3,3.2,4.3
		S347.2,26.2,347.2,23.9z"/>
	<path fill="#FFFFFF" d="M351.6,19.8l-2,0.6l-0.3-1l2.6-0.9h0.9v10.6h-1.2V19.8z"/>
	<path fill="#FFFFFF" d="M360.7,19.7h-5.8v-1.1h7.1v0.9l-4.8,9.6h-1.3L360.7,19.7z"/>
	<path fill="#FFFFFF" d="M225,43.6l0.7-0.9c1.1,1,2.1,1.5,3.6,1.5c1.4,0,2.3-0.8,2.3-1.8v0c0-1-0.5-1.5-2.7-2
		c-2.4-0.5-3.5-1.3-3.5-3v0c0-1.6,1.5-2.9,3.5-2.9c1.5,0,2.6,0.4,3.7,1.3l-0.7,0.9c-1-0.8-1.9-1.1-3-1.1c-1.4,0-2.2,0.8-2.2,1.7v0
		c0,1,0.5,1.5,2.9,2c2.3,0.5,3.4,1.4,3.4,3v0c0,1.8-1.5,3-3.6,3C227.6,45.3,226.3,44.7,225,43.6z"/>
	<path fill="#FFFFFF" d="M234.1,42.9L234.1,42.9c0-1.7,1.3-2.5,3.3-2.5c1,0,1.7,0.1,2.4,0.3v-0.3c0-1.4-0.9-2.1-2.3-2.1
		c-0.9,0-1.6,0.2-2.4,0.6l-0.3-0.9c0.9-0.4,1.7-0.6,2.8-0.6c1.1,0,1.9,0.3,2.5,0.9c0.5,0.5,0.8,1.3,0.8,2.3v4.7h-1.1v-1.2
		c-0.5,0.7-1.4,1.3-2.8,1.3C235.6,45.3,234.1,44.5,234.1,42.9z M239.9,42.3v-0.8c-0.6-0.2-1.3-0.3-2.3-0.3c-1.5,0-2.3,0.6-2.3,1.6v0
		c0,1,0.9,1.5,1.9,1.5C238.7,44.4,239.9,43.5,239.9,42.3z"/>
	<path fill="#FFFFFF" d="M243,37.4h1.2v1.4c0.5-0.8,1.3-1.5,2.7-1.5c1.9,0,3,1.3,3,3.1v4.8h-1.2v-4.5c0-1.4-0.8-2.3-2.1-2.3
		c-1.3,0-2.3,1-2.3,2.4v4.4H243V37.4z"/>
	<path fill="#FFFFFF" d="M256.2,34.6h7.5v1.1h-6.4v3.8h5.7v1.1h-5.7v4.6h-1.2V34.6z"/>
	<path fill="#FFFFFF" d="M265.5,37.4h1.2v2c0.6-1.3,1.7-2.2,3.2-2.2v1.2h-0.1c-1.7,0-3.1,1.2-3.1,3.6v3.1h-1.2V37.4z"/>
	<path fill="#FFFFFF" d="M270.2,42.9L270.2,42.9c0-1.7,1.3-2.5,3.3-2.5c1,0,1.7,0.1,2.4,0.3v-0.3c0-1.4-0.9-2.1-2.3-2.1
		c-0.9,0-1.6,0.2-2.4,0.6l-0.3-0.9c0.9-0.4,1.7-0.6,2.8-0.6c1.1,0,1.9,0.3,2.5,0.9c0.5,0.5,0.8,1.3,0.8,2.3v4.7h-1.1v-1.2
		c-0.5,0.7-1.4,1.3-2.8,1.3C271.7,45.3,270.2,44.5,270.2,42.9z M276,42.3v-0.8c-0.6-0.2-1.3-0.3-2.3-0.3c-1.5,0-2.3,0.6-2.3,1.6v0
		c0,1,0.9,1.5,1.9,1.5C274.8,44.4,276,43.5,276,42.3z"/>
	<path fill="#FFFFFF" d="M279.1,37.4h1.2v1.4c0.5-0.8,1.3-1.5,2.7-1.5c1.9,0,3,1.3,3,3.1v4.8h-1.2v-4.5c0-1.4-0.8-2.3-2.1-2.3
		c-1.3,0-2.3,1-2.3,2.4v4.4h-1.2V37.4z"/>
	<path fill="#FFFFFF" d="M287.5,41.3L287.5,41.3c0-2.2,1.7-4.1,4-4.1c1.5,0,2.4,0.6,3.1,1.4l-0.8,0.8c-0.6-0.6-1.3-1.2-2.4-1.2
		c-1.6,0-2.8,1.3-2.8,3v0c0,1.7,1.2,3,2.8,3c1,0,1.8-0.5,2.4-1.2l0.7,0.7c-0.8,0.9-1.7,1.5-3.2,1.5
		C289.2,45.3,287.5,43.5,287.5,41.3z"/>
	<path fill="#FFFFFF" d="M296.2,34.4h1.3v1.3h-1.3V34.4z M296.3,37.4h1.2v7.8h-1.2V37.4z"/>
	<path fill="#FFFFFF" d="M299.1,44.1l0.6-0.8c0.8,0.6,1.8,1,2.7,1c0.9,0,1.6-0.5,1.6-1.2v0c0-0.8-0.9-1.1-1.9-1.4
		c-1.2-0.3-2.6-0.8-2.6-2.2v0c0-1.3,1.1-2.2,2.6-2.2c0.9,0,2,0.3,2.8,0.9l-0.5,0.9c-0.7-0.5-1.5-0.8-2.3-0.8c-0.9,0-1.5,0.5-1.5,1.1
		v0c0,0.7,1,1,2,1.3c1.2,0.4,2.5,0.8,2.5,2.2v0c0,1.5-1.2,2.3-2.8,2.3C301.2,45.3,300,44.8,299.1,44.1z"/>
	<path fill="#FFFFFF" d="M306.4,41.3L306.4,41.3c0-2.2,1.7-4.1,4-4.1c1.5,0,2.4,0.6,3.1,1.4l-0.8,0.8c-0.6-0.6-1.3-1.2-2.4-1.2
		c-1.6,0-2.8,1.3-2.8,3v0c0,1.7,1.2,3,2.8,3c1,0,1.8-0.5,2.4-1.2l0.7,0.7c-0.8,0.9-1.7,1.5-3.2,1.5
		C308.1,45.3,306.4,43.5,306.4,41.3z"/>
	<path fill="#FFFFFF" d="M314.3,41.3L314.3,41.3c0-2.2,1.7-4.1,4-4.1c2.3,0,4,1.8,4,4v0c0,2.2-1.7,4-4.1,4
		C316,45.3,314.3,43.5,314.3,41.3z M321.2,41.3L321.2,41.3c0-1.7-1.2-3.1-2.9-3.1c-1.7,0-2.8,1.4-2.8,3v0c0,1.7,1.2,3,2.9,3
		C320.1,44.3,321.2,42.9,321.2,41.3z"/>
	<path fill="#FFFFFF" d="M323.2,46.4c0.8-0.3,1.1-0.7,1-1.3h-0.5v-1.6h1.4v1.4c0,1.2-0.5,1.8-1.7,2.1L323.2,46.4z"/>
	<path fill="#FFFFFF" d="M331.5,34.6h3.9c2.4,0,3.9,1.3,3.9,3.3v0c0,2.3-1.9,3.4-4.1,3.4h-2.5v3.7h-1.2V34.6z M335.2,40.3
		c1.7,0,2.9-0.9,2.9-2.3v0c0-1.5-1.1-2.3-2.8-2.3h-2.7v4.6H335.2z"/>
	<path fill="#FFFFFF" d="M340.9,34.4h1.3v1.3h-1.3V34.4z M341,37.4h1.2v7.8H341V37.4z"/>
	<path fill="#FFFFFF" d="M344,41.3L344,41.3c0-2.3,1.6-4.1,3.7-4.1c2.3,0,3.6,1.8,3.6,4.1c0,0.2,0,0.2,0,0.4h-6.2
		c0.2,1.7,1.4,2.6,2.7,2.6c1.1,0,1.8-0.4,2.4-1.1l0.7,0.6c-0.8,0.9-1.7,1.5-3.2,1.5C345.7,45.3,344,43.7,344,41.3z M350.2,40.8
		c-0.1-1.4-0.9-2.6-2.5-2.6c-1.4,0-2.4,1.1-2.5,2.6H350.2z"/>
	<path fill="#FFFFFF" d="M353,37.4h1.2v2c0.6-1.3,1.7-2.2,3.2-2.2v1.2h-0.1c-1.7,0-3.1,1.2-3.1,3.6v3.1H353V37.4z"/>
	<path fill="#FFFFFF" d="M362.2,44.2l3.8-3.4c1.6-1.4,2.2-2.3,2.2-3.3c0-1.2-1-2-2.1-2c-1.2,0-2,0.6-2.8,1.8l-0.9-0.6
		c0.9-1.4,1.9-2.2,3.8-2.2c1.9,0,3.3,1.3,3.3,3v0c0,1.5-0.8,2.5-2.7,4.1L364,44h5.6v1.1h-7.3V44.2z"/>
	<path fill="#FFFFFF" d="M376.7,35.7H371v-1.1h7.1v0.9l-4.8,9.6H372L376.7,35.7z"/>
</g>
</svg>
