<svg id="Layer_1" data-name="Layer 1" xmlns="http://www.w3.org/2000/svg" width="516.5" height="53.2" viewBox="0 0 516.5 53.2">
  <title>kotlinconf_banner</title>
  <g>
    <path d="M71.3,24.6h4.5v8.9L84,24.6h5.4L81,33.2l8.6,11.7H84.2L78,36.3l-2.3,2.4v6.2H71.2V24.6Z" fill="#fff"/>
    <path d="M88,37.2h0a8.46009,8.46009,0,0,1,16.9-.1h0a8.46009,8.46009,0,0,1-16.9.1Zm12.5,0h0a4.25047,4.25047,0,0,0-4.1-4.4,3.88232,3.88232,0,0,0-4,4.2h0a4.07787,4.07787,0,0,0,4.1,4.2C98.9,41.5,100.5,39.5,100.5,37.2Z" fill="#fff"/>
    <path d="M106.4,40.4V33.1h-1.8V29.4h1.8v-4h4.4v4h3.7v3.7h-3.6v6.7c0,1,.4,1.5,1.4,1.5a7.85016,7.85016,0,0,0,2.2-.5v3.5a7.22661,7.22661,0,0,1-3.5.9C108.2,45.1,106.4,44,106.4,40.4Z" fill="#fff"/>
    <path d="M115.6,23.7H120V44.8h-4.4Z" fill="#fff"/>
    <path d="M121.9,23.7h4.6v3.9h-4.6Zm.2,5.7h4.4V45h-4.4Z" fill="#fff"/>
    <path d="M128.2,29.4h4.4v2.2a5.36664,5.36664,0,0,1,4.5-2.4c3.3,0,5.3,2.2,5.3,5.8V45H138V36.4c0-2.1-1-3.2-2.7-3.2s-2.7,1-2.7,3.2V45h-4.4V29.4Z" fill="#fff"/>
    <path d="M150,34.8h0a10.89008,10.89008,0,0,1,18.5-7.4l-2.8,3.2a7.50678,7.50678,0,0,0-5.1-2.3c-3.5,0-5.9,2.8-5.9,6.3h0c0,3.5,2.4,6.4,5.9,6.4a7.4113,7.4113,0,0,0,5.3-2.3l2.8,2.8a10.52076,10.52076,0,0,1-8.4,3.6A9.98292,9.98292,0,0,1,150,34.8Z" fill="#fff"/>
    <path d="M168.3,37.2h0a8.46008,8.46008,0,0,1,16.9-.1h0a8.46008,8.46008,0,0,1-16.9.1Zm12.5,0h0a4.25048,4.25048,0,0,0-4.1-4.4,3.88232,3.88232,0,0,0-4,4.2h0a4.07788,4.07788,0,0,0,4.1,4.2C179.3,41.5,180.8,39.5,180.8,37.2Z" fill="#fff"/>
    <path d="M185.9,29.4h4.4v2.2a5.36664,5.36664,0,0,1,4.5-2.4c3.3,0,5.3,2.2,5.3,5.8V45h-4.4V36.4c0-2.1-1-3.2-2.7-3.2s-2.7,1-2.7,3.2V45h-4.4V29.4Z" fill="#fff"/>
    <path d="M202.5,33.1h-1.9V29.5h1.8v-1c0-1.7.4-3,1.3-3.7a5.05029,5.05029,0,0,1,3.6-1.2,8.61788,8.61788,0,0,1,3.1.4v3.6a4.63814,4.63814,0,0,0-2.1-.4c-1,0-1.5.5-1.5,1.7v.6h3.6v3.6h-3.5V44.8h-4.4V33.1Z" fill="#fff"/>
  </g>
  <g>
    <polygon points="13.7 5.7 13.7 24.5 23.1 15.1 13.7 5.7" fill="#4bb8f6"/>
    <polygon points="13.1 14.7 13.1 5.7 4.1 14.7 13.1 14.7" fill="#ff7616"/>
    <polygon points="23.2 45.3 23.2 36.3 14.2 45.3 23.2 45.3" fill="#4bb8f6"/>
    <polygon points="23.6 35 53.3 5.3 43.5 5.3 34 5.3 13.9 25.4 23.6 35" fill="#4bb8f6"/>
    <polygon points="23.9 45.3 32.9 45.3 23.9 36.3 23.9 45.3" fill="#4bb8f6"/>
    <polygon points="33.8 25.8 24.1 35.5 34 45.3 53.3 45.3 33.8 25.8" fill="#4bb8f6"/>
    <polygon points="13.7 44.9 23.1 35.5 13.7 26.2 13.7 44.9" fill="#4bb8f6"/>
  </g>
  <rect x="396.20001" y="29.1" width="120.29999" height="24.1" fill="#ff7616"/>
  <g>
    <path d="M411.4,36.9h3.8a2.95288,2.95288,0,0,1,2.4.9,2.48949,2.48949,0,0,1,.7,1.9h0a2.53449,2.53449,0,0,1-1.8,2.6l2.1,3h-2.2l-1.8-2.7h-1.5v2.7h-1.8V36.9Zm3.8,4.1c.9,0,1.4-.5,1.4-1.2h0c0-.8-.6-1.2-1.5-1.2h-1.8V41Z" fill="#fff"/>
    <path d="M419.8,36.9h6.3v1.6h-4.5v1.7h4v1.6h-4v1.8h4.6v1.6h-6.4Z" fill="#fff"/>
    <path d="M427.2,41.1h0a4.37452,4.37452,0,0,1,4.4-4.4,4.45938,4.45938,0,0,1,3.3,1.2l-1.2,1.4a3.17213,3.17213,0,0,0-2.2-.9,2.54654,2.54654,0,0,0-2.4,2.6h0a2.58778,2.58778,0,0,0,2.5,2.7,2.86029,2.86029,0,0,0,1.7-.5V42h-1.9V40.4H435V44a5.80373,5.80373,0,0,1-3.6,1.3A3.93563,3.93563,0,0,1,427.2,41.1Z" fill="#fff"/>
    <path d="M436.7,36.9h1.8v8.4h-1.8Z" fill="#fff"/>
    <path d="M439.8,44.1l1.1-1.3a3.94567,3.94567,0,0,0,2.5,1c.8,0,1.2-.3,1.2-.8h0c0-.5-.3-.7-1.7-1.1-1.7-.4-2.8-.9-2.8-2.6h0c0-1.5,1.2-2.5,2.9-2.5a4.68977,4.68977,0,0,1,3.1,1.1l-1,1.4a3.96439,3.96439,0,0,0-2.2-.8c-.7,0-1.1.3-1.1.7h0c0,.6.4.7,1.8,1.1,1.7.4,2.7,1.1,2.7,2.5h0c0,1.7-1.3,2.6-3.1,2.6A5.19371,5.19371,0,0,1,439.8,44.1Z" fill="#fff"/>
    <path d="M449.5,38.6H447V36.9h7v1.7h-2.6v6.7h-1.8V38.6Z" fill="#fff"/>
    <path d="M455.1,36.9h6.3v1.6h-4.5v1.7h4v1.6h-4v1.8h4.6v1.6h-6.4Z" fill="#fff"/>
    <path d="M462.8,36.9h3.8a2.95288,2.95288,0,0,1,2.4.9,2.48949,2.48949,0,0,1,.7,1.9h0a2.53449,2.53449,0,0,1-1.8,2.6l2.1,3h-2.2L466,42.6h-1.5v2.7h-1.8V36.9Zm3.7,4.1c.9,0,1.4-.5,1.4-1.2h0c0-.8-.6-1.2-1.5-1.2h-1.8V41Z" fill="#fff"/>
    <path d="M474.5,36.9h1.7l3.9,5.2V36.9h1.8v8.4h-1.6L476.2,40v5.3h-1.8V36.9Z" fill="#fff"/>
    <path d="M483.3,41.1h0a4.39773,4.39773,0,0,1,4.5-4.4,4.23176,4.23176,0,0,1,4.4,4.3h0a4.317,4.317,0,0,1-4.5,4.3A4.15288,4.15288,0,0,1,483.3,41.1Zm7,0h0a2.58778,2.58778,0,0,0-2.5-2.7,2.56183,2.56183,0,0,0-2.5,2.6h0a2.56183,2.56183,0,0,0,2.5,2.6A2.41609,2.41609,0,0,0,490.3,41.1Z" fill="#fff"/>
    <path d="M492.4,36.9h2l1.7,5.7,1.9-5.7h1.6l1.9,5.7,1.7-5.7h1.9l-2.9,8.5h-1.6l-1.9-5.5-1.9,5.5h-1.6Z" fill="#fff"/>
  </g>
  <g>
    <path d="M224.9,28.2l3.8-3.4c1.6-1.4,2.2-2.3,2.2-3.3a2.02748,2.02748,0,0,0-2.1-2,3.23023,3.23023,0,0,0-2.8,1.8l-.9-.6a4.07114,4.07114,0,0,1,3.8-2.2,3.08636,3.08636,0,0,1,3.3,3h0c0,1.5-.8,2.5-2.7,4.1l-2.8,2.5h5.6v1.1H225v-1Z" fill="#fff"/>
    <path d="M233.8,24H238v1.2h-4.2Z" fill="#fff"/>
    <path d="M239.2,27.4l.9-.8a3.83829,3.83829,0,0,0,3.1,1.6,2.08791,2.08791,0,0,0,2.3-2h0c0-1.3-1.2-2-2.9-2h-.7l-.2-.7,3.3-3.7h-5.1V18.7h6.7v.9l-3.3,3.7c1.8.2,3.5,1,3.5,3h0a3.29538,3.29538,0,0,1-3.5,3.2A5.44513,5.44513,0,0,1,239.2,27.4Z" fill="#fff"/>
    <path d="M252.9,18.6H254l6.6,8.4V18.6h1.2V29.1h-.9l-6.8-8.6v8.6h-1.2V18.6Z" fill="#fff"/>
    <path d="M263.7,25.3h0a4.03309,4.03309,0,0,1,4-4.1,3.94863,3.94863,0,0,1,4,4h0a3.9726,3.9726,0,0,1-4.1,4A3.72728,3.72728,0,0,1,263.7,25.3Zm6.9,0h0a2.95,2.95,0,0,0-2.9-3.1,2.84221,2.84221,0,0,0-2.8,3h0a2.86485,2.86485,0,0,0,2.9,3A2.75944,2.75944,0,0,0,270.6,25.3Z" fill="#fff"/>
    <path d="M272.2,21.4h1.3l2.6,6.4,2.6-6.4h1.2l-3.4,7.8h-1Z" fill="#fff"/>
    <path d="M280.5,25.3h0a3.85706,3.85706,0,0,1,3.7-4.1c2.3,0,3.6,1.8,3.6,4.1v.4h-6.1a2.71876,2.71876,0,0,0,2.7,2.6,2.90369,2.90369,0,0,0,2.4-1.1l.7.6a3.9429,3.9429,0,0,1-3.2,1.5A3.78723,3.78723,0,0,1,280.5,25.3Zm6.2-.5a2.49841,2.49841,0,0,0-2.5-2.6,2.5623,2.5623,0,0,0-2.5,2.6Z" fill="#fff"/>
    <path d="M289.5,21.4h1.2v1.3a2.77627,2.77627,0,0,1,2.5-1.5,2.66354,2.66354,0,0,1,2.5,1.5,3.02931,3.02931,0,0,1,2.7-1.5,2.7879,2.7879,0,0,1,2.9,3.1v4.8h-1.2V24.6c0-1.5-.8-2.3-2-2.3a2.13978,2.13978,0,0,0-2.1,2.4v4.5h-1.2V24.6c0-1.5-.8-2.3-2-2.3a2.2699,2.2699,0,0,0-2.2,2.4v4.4h-1.2V21.4Z" fill="#fff"/>
    <path d="M304.5,27.6v1.5h-1.2V18.2h1.2V23a3.44558,3.44558,0,0,1,3-1.7,3.7677,3.7677,0,0,1,3.7,4h0a3.76768,3.76768,0,0,1-3.7,4A3.578,3.578,0,0,1,304.5,27.6Zm5.5-2.3h0a2.7698,2.7698,0,0,0-2.7-3,2.90748,2.90748,0,0,0-2.8,3h0a2.90748,2.90748,0,0,0,2.8,3A2.82934,2.82934,0,0,0,310,25.3Z" fill="#fff"/>
    <path d="M312.5,25.3h0a3.85706,3.85706,0,0,1,3.7-4.1c2.3,0,3.6,1.8,3.6,4.1v.4h-6.2a2.71876,2.71876,0,0,0,2.7,2.6,2.90369,2.90369,0,0,0,2.4-1.1l.7.6a3.9429,3.9429,0,0,1-3.2,1.5A3.76868,3.76868,0,0,1,312.5,25.3Zm6.1-.5a2.49841,2.49841,0,0,0-2.5-2.6,2.5623,2.5623,0,0,0-2.5,2.6Z" fill="#fff"/>
    <path d="M321.5,21.4h1.2v2a3.47564,3.47564,0,0,1,3.2-2.2v1.2h-.1c-1.7,0-3.1,1.2-3.1,3.6v3.1h-1.2Z" fill="#fff"/>
    <path d="M330.7,28.2l3.8-3.4c1.6-1.4,2.2-2.3,2.2-3.3a2.02748,2.02748,0,0,0-2.1-2,3.23017,3.23017,0,0,0-2.8,1.8l-.9-.6a4.07113,4.07113,0,0,1,3.8-2.2,3.08635,3.08635,0,0,1,3.3,3h0c0,1.5-.8,2.5-2.7,4.1l-2.8,2.5h5.6v1.1h-7.3v-1Z" fill="#fff"/>
    <path d="M339.5,23.9h0c0-3,1.8-5.5,4.5-5.5s4.4,2.5,4.4,5.4h0c0,2.9-1.7,5.4-4.4,5.4C341.2,29.3,339.5,26.8,339.5,23.9Zm7.7,0h0c0-2.3-1.3-4.4-3.2-4.4-2,0-3.2,2-3.2,4.3h0c0,2.3,1.3,4.3,3.2,4.3S347.2,26.2,347.2,23.9Z" fill="#fff"/>
    <path d="M351.6,19.8l-2,.6-.3-1,2.6-.9h.9V29.1h-1.2Z" fill="#fff"/>
    <path d="M360.7,19.7h-5.8V18.6H362v.9l-4.8,9.6h-1.3Z" fill="#fff"/>
    <path d="M225,43.6l.7-.9a4.90977,4.90977,0,0,0,3.6,1.5c1.4,0,2.3-.8,2.3-1.8h0c0-1-.5-1.5-2.7-2-2.4-.5-3.5-1.3-3.5-3h0c0-1.6,1.5-2.9,3.5-2.9a5.40513,5.40513,0,0,1,3.7,1.3l-.7.9a4.47248,4.47248,0,0,0-3-1.1c-1.4,0-2.2.8-2.2,1.7h0c0,1,.5,1.5,2.9,2,2.3.5,3.4,1.4,3.4,3h0c0,1.8-1.5,3-3.6,3A6.37386,6.37386,0,0,1,225,43.6Z" fill="#fff"/>
    <path d="M234.1,42.9h0c0-1.7,1.3-2.5,3.3-2.5a8.25992,8.25992,0,0,1,2.4.3v-.3c0-1.4-.9-2.1-2.3-2.1a5.025,5.025,0,0,0-2.4.6l-.3-.9a6.388,6.388,0,0,1,2.8-.6,3.32751,3.32751,0,0,1,2.5.9,3.199,3.199,0,0,1,.8,2.3v4.7h-1.1V44.1a3.27873,3.27873,0,0,1-2.8,1.3C235.6,45.3,234.1,44.5,234.1,42.9Zm5.8-.6v-.8a7.11692,7.11692,0,0,0-2.3-.3c-1.5,0-2.3.6-2.3,1.6h0c0,1,.9,1.5,1.9,1.5C238.7,44.4,239.9,43.5,239.9,42.3Z" fill="#fff"/>
    <path d="M243,37.4h1.2v1.4a2.989,2.989,0,0,1,2.7-1.5,2.861,2.861,0,0,1,3,3.1v4.8h-1.2V40.7a2.05359,2.05359,0,0,0-2.1-2.3,2.288,2.288,0,0,0-2.3,2.4v4.4H243Z" fill="#fff"/>
    <path d="M256.2,34.6h7.5v1.1h-6.4v3.8H263v1.1h-5.7v4.6h-1.2V34.6Z" fill="#fff"/>
    <path d="M265.5,37.4h1.2v2a3.47564,3.47564,0,0,1,3.2-2.2v1.2h-.1c-1.7,0-3.1,1.2-3.1,3.6v3.1h-1.2Z" fill="#fff"/>
    <path d="M270.2,42.9h0c0-1.7,1.3-2.5,3.3-2.5a8.25985,8.25985,0,0,1,2.4.3v-.3c0-1.4-.9-2.1-2.3-2.1a5.025,5.025,0,0,0-2.4.6l-.3-.9a6.38806,6.38806,0,0,1,2.8-.6,3.32751,3.32751,0,0,1,2.5.9,3.199,3.199,0,0,1,.8,2.3v4.7h-1.1V44.1a3.27872,3.27872,0,0,1-2.8,1.3C271.7,45.3,270.2,44.5,270.2,42.9Zm5.8-.6v-.8a7.11682,7.11682,0,0,0-2.3-.3c-1.5,0-2.3.6-2.3,1.6h0c0,1,.9,1.5,1.9,1.5C274.8,44.4,276,43.5,276,42.3Z" fill="#fff"/>
    <path d="M279.1,37.4h1.2v1.4a2.98894,2.98894,0,0,1,2.7-1.5,2.861,2.861,0,0,1,3,3.1v4.8h-1.2V40.7a2.05358,2.05358,0,0,0-2.1-2.3,2.288,2.288,0,0,0-2.3,2.4v4.4h-1.2V37.4Z" fill="#fff"/>
    <path d="M287.5,41.3h0a4.03309,4.03309,0,0,1,4-4.1,3.81707,3.81707,0,0,1,3.1,1.4l-.8.8a3.29214,3.29214,0,0,0-2.4-1.2,2.84506,2.84506,0,0,0-2.8,3h0a2.84508,2.84508,0,0,0,2.8,3,3.13193,3.13193,0,0,0,2.4-1.2l.7.7a3.94289,3.94289,0,0,1-3.2,1.5A3.76038,3.76038,0,0,1,287.5,41.3Z" fill="#fff"/>
    <path d="M296.2,34.4h1.3v1.3h-1.3Zm.1,3h1.2v7.8h-1.2Z" fill="#fff"/>
    <path d="M299.1,44.1l.6-.8a4.73378,4.73378,0,0,0,2.7,1c.9,0,1.6-.5,1.6-1.2h0c0-.8-.9-1.1-1.9-1.4-1.2-.3-2.6-.8-2.6-2.2h0a2.33312,2.33312,0,0,1,2.6-2.2,4.90149,4.90149,0,0,1,2.8.9l-.5.9a4.00642,4.00642,0,0,0-2.3-.8c-.9,0-1.5.5-1.5,1.1h0c0,.7,1,1,2,1.3,1.2.4,2.5.8,2.5,2.2h0c0,1.5-1.2,2.3-2.8,2.3A4.79859,4.79859,0,0,1,299.1,44.1Z" fill="#fff"/>
    <path d="M306.4,41.3h0a4.03309,4.03309,0,0,1,4-4.1,3.81707,3.81707,0,0,1,3.1,1.4l-.8.8a3.29214,3.29214,0,0,0-2.4-1.2,2.84506,2.84506,0,0,0-2.8,3h0a2.84508,2.84508,0,0,0,2.8,3,3.13193,3.13193,0,0,0,2.4-1.2l.7.7a3.94289,3.94289,0,0,1-3.2,1.5A3.76038,3.76038,0,0,1,306.4,41.3Z" fill="#fff"/>
    <path d="M314.3,41.3h0a4.03309,4.03309,0,0,1,4-4.1,3.94863,3.94863,0,0,1,4,4h0a3.9726,3.9726,0,0,1-4.1,4A3.78312,3.78312,0,0,1,314.3,41.3Zm6.9,0h0a2.95,2.95,0,0,0-2.9-3.1,2.84221,2.84221,0,0,0-2.8,3h0a2.86485,2.86485,0,0,0,2.9,3A2.704,2.704,0,0,0,321.2,41.3Z" fill="#fff"/>
    <path d="M323.2,46.4c.8-.3,1.1-.7,1-1.3h-.5V43.5h1.4v1.4a1.90412,1.90412,0,0,1-1.7,2.1Z" fill="#fff"/>
    <path d="M331.5,34.6h3.9c2.4,0,3.9,1.3,3.9,3.3h0c0,2.3-1.9,3.4-4.1,3.4h-2.5V45h-1.2V34.6Zm3.7,5.7c1.7,0,2.9-.9,2.9-2.3h0c0-1.5-1.1-2.3-2.8-2.3h-2.7v4.6Z" fill="#fff"/>
    <path d="M340.9,34.4h1.3v1.3h-1.3Zm.1,3h1.2v7.8H341Z" fill="#fff"/>
    <path d="M344,41.3h0a3.85706,3.85706,0,0,1,3.7-4.1c2.3,0,3.6,1.8,3.6,4.1v.4h-6.2a2.71876,2.71876,0,0,0,2.7,2.6,2.9037,2.9037,0,0,0,2.4-1.1l.7.6a3.94289,3.94289,0,0,1-3.2,1.5A3.76868,3.76868,0,0,1,344,41.3Zm6.2-.5a2.49841,2.49841,0,0,0-2.5-2.6,2.5623,2.5623,0,0,0-2.5,2.6Z" fill="#fff"/>
    <path d="M353,37.4h1.2v2a3.47564,3.47564,0,0,1,3.2-2.2v1.2h-.1c-1.7,0-3.1,1.2-3.1,3.6v3.1H353Z" fill="#fff"/>
    <path d="M362.2,44.2l3.8-3.4c1.6-1.4,2.2-2.3,2.2-3.3a2.02748,2.02748,0,0,0-2.1-2,3.23017,3.23017,0,0,0-2.8,1.8l-.9-.6a4.07113,4.07113,0,0,1,3.8-2.2,3.08635,3.08635,0,0,1,3.3,3h0c0,1.5-.8,2.5-2.7,4.1L364,44h5.6v1.1h-7.3v-.9Z" fill="#fff"/>
    <path d="M376.7,35.7H371V34.6h7.1v.9l-4.8,9.6H372Z" fill="#fff"/>
  </g>
</svg>
