<?xml version="1.0" encoding="utf-8"?>
<!-- Generator: Adobe Illustrator 17.0.2, SVG Export Plug-In . SVG Version: 6.00 Build 0)  -->
<!DOCTYPE svg PUBLIC "-//W3C//DTD SVG 1.1//EN" "http://www.w3.org/Graphics/SVG/1.1/DTD/svg11.dtd">
<svg version="1.1" id="Layer_1" xmlns="http://www.w3.org/2000/svg" xmlns:xlink="http://www.w3.org/1999/xlink" x="0px" y="0px"
	 width="1024px" height="116px" viewBox="0 0 1024 116" enable-background="new 0 0 1024 116" xml:space="preserve">
<path fill="#FFFFFF" d="M137.258,48.817h8.879v17.636l16.298-17.636h10.703l-16.663,17.028l17.028,23.231h-10.703l-12.285-17.028
	l-4.5,4.744v12.285h-8.879V48.818h0.122V48.817z"/>
<path fill="#FFFFFF" d="M170.342,73.751L170.342,73.751c0-8.879,7.176-16.055,16.907-16.055c9.487,0,16.663,7.176,16.663,15.812l0,0
	c0,8.879-7.176,16.055-16.907,16.055C177.518,89.685,170.342,82.508,170.342,73.751z M195.154,73.751L195.154,73.751
	c0-4.5-3.406-8.757-8.149-8.757c-5.108,0-7.906,3.771-7.906,8.271l0,0c0,4.5,3.406,8.271,8.149,8.271
	C191.992,82.265,195.154,78.373,195.154,73.751z"/>
<path fill="#FFFFFF" d="M206.831,80.076V65.602h-3.527v-7.298h3.527v-7.906h8.757v7.906h7.298v7.298h-7.176V78.86
	c0,1.946,0.851,2.919,2.797,2.919c1.581,0,2.919-0.608,4.379-0.973v6.933c-1.824,0.973-4.135,1.824-6.933,1.824
	C210.48,89.441,206.831,87.252,206.831,80.076z"/>
<path fill="#FFFFFF" d="M225.076,46.993h8.757v41.841h-8.757V46.993z"/>
<path fill="#FFFFFF" d="M237.604,46.993h9.122v7.784h-9.122V46.993z M237.968,58.304h8.757v30.894h-8.757V58.304z"/>
<path fill="#FFFFFF" d="M250.132,58.304h8.757v4.379c1.946-2.554,4.5-4.744,8.879-4.744c6.568,0,10.46,4.379,10.46,11.555V89.32
	h-8.757V72.292c0-4.135-1.946-6.325-5.352-6.325c-3.406,0-5.352,1.946-5.352,6.325V89.32h-8.636L250.132,58.304L250.132,58.304z"/>
<path fill="#FFFFFF" d="M282.363,69.008L282.363,69.008c0-11.555,8.757-20.799,20.799-20.799c7.784,0,12.285,2.554,15.812,6.203
	l-5.595,6.325c-2.919-2.797-6.325-4.5-10.095-4.5c-6.933,0-11.676,5.595-11.676,12.528l0,0c0,6.933,4.744,12.649,11.676,12.649
	c4.5,0,7.298-1.824,10.46-4.5l5.595,5.595c-4.135,4.379-8.757,7.176-16.663,7.176C290.878,89.685,282.363,80.562,282.363,69.008z"/>
<path fill="#FFFFFF" d="M318.608,73.751L318.608,73.751c0-8.879,7.176-16.055,16.907-16.055c9.487,0,16.663,7.176,16.663,15.812l0,0
	c0,8.879-7.176,16.055-16.907,16.055C325.784,89.685,318.608,82.508,318.608,73.751z M343.421,73.751L343.421,73.751
	c0-4.5-3.406-8.757-8.149-8.757c-5.108,0-7.906,3.771-7.906,8.271l0,0c0,4.5,3.406,8.271,8.149,8.271
	C340.503,82.265,343.421,78.373,343.421,73.751z"/>
<path fill="#FFFFFF" d="M353.516,58.304h8.757v4.379c1.946-2.554,4.5-4.744,8.879-4.744c6.568,0,10.46,4.379,10.46,11.555V89.32
	h-8.636V72.292c0-4.135-1.946-6.325-5.352-6.325c-3.406,0-5.352,1.946-5.352,6.325V89.32h-8.757L353.516,58.304L353.516,58.304z"/>
<path fill="#FFFFFF" d="M386.478,65.602h-3.771v-7.176h3.527V56.48c0-3.406,0.851-5.96,2.554-7.298
	c1.581-1.581,4.135-2.433,7.176-2.433c2.797,0,4.5,0.243,6.203,0.851v7.176c-1.216-0.608-2.554-0.851-4.135-0.851
	c-1.946,0-2.919,0.973-2.919,3.406v1.216h7.176v7.176h-6.933v23.231h-8.757L386.478,65.602L386.478,65.602z"/>
<g>
	<polygon fill="#4BB8F6" points="23.048,11.355 23.048,48.574 41.779,29.964 	"/>
	<polygon fill="#FF7616" points="21.954,29.113 21.954,11.355 4.074,29.113 	"/>
	<polygon fill="#4BB8F6" points="41.901,89.806 41.901,72.048 24.021,89.806 	"/>
	<polygon fill="#4BB8F6" points="42.752,69.372 101.621,10.504 82.16,10.504 63.308,10.504 23.535,50.398 	"/>
	<polygon fill="#4BB8F6" points="43.36,89.806 61.118,89.806 43.36,72.048 	"/>
	<polygon fill="#4BB8F6" points="62.943,51.128 43.725,70.345 63.308,89.806 101.621,89.806 	"/>
	<polygon fill="#4BB8F6" points="23.048,89.076 41.779,70.345 23.048,51.979 	"/>
</g>
<rect x="781.409" y="57.696" fill="#FF7616" width="238.516" height="47.8"/>
<g>
	<path fill="#FFFFFF" d="M811.573,73.143h7.541c2.189,0,3.771,0.608,4.744,1.824c0.973,0.973,1.338,2.189,1.338,3.771l0,0
		c0,2.797-1.338,4.379-3.527,5.108l4.135,5.96h-4.379l-3.527-5.352h-2.919v5.352h-3.527V73.143H811.573z M819.115,81.292
		c1.824,0,2.797-0.973,2.797-2.433l0,0c0-1.581-1.216-2.433-2.919-2.433h-3.527v4.744h3.649V81.292z"/>
	<path fill="#FFFFFF" d="M828.236,73.143h12.528v3.162h-8.879v3.406h7.906v3.162h-7.906V86.4h9.122v3.162h-12.649v-16.42h-0.122
		V73.143z"/>
	<path fill="#FFFFFF" d="M842.833,81.535L842.833,81.535c0-4.744,3.771-8.757,8.757-8.757c2.919,0,4.744,0.851,6.568,2.433
		l-2.433,2.797c-1.216-0.973-2.433-1.824-4.379-1.824c-2.554,0-4.744,2.433-4.744,5.108l0,0c0,2.919,2.189,5.352,4.987,5.352
		c1.338,0,2.554-0.365,3.406-0.973v-2.433h-3.771v-3.162h7.176v7.176c-1.824,1.338-4.135,2.554-7.176,2.554
		C846.481,90.171,842.833,86.401,842.833,81.535z"/>
	<path fill="#FFFFFF" d="M861.686,73.143h3.527v16.663h-3.527V73.143z"/>
	<path fill="#FFFFFF" d="M867.889,87.495l2.189-2.554c1.581,1.216,2.919,1.946,4.987,1.946c1.581,0,2.433-0.608,2.433-1.581l0,0
		c0-0.973-0.608-1.338-3.406-2.189c-3.406-0.851-5.595-1.824-5.595-5.108l0,0c0-2.919,2.433-4.987,5.717-4.987
		c2.433,0,4.5,0.851,6.203,2.189l-1.946,2.797c-1.338-0.973-2.919-1.581-4.379-1.581c-1.338,0-2.189,0.608-2.189,1.338l0,0
		c0,1.216,0.851,1.338,3.527,2.189c3.406,0.851,5.352,2.189,5.352,4.987l0,0c0,3.406-2.554,5.108-6.203,5.108
		C872.389,90.049,869.834,89.198,867.889,87.495z"/>
	<path fill="#FFFFFF" d="M887.105,76.549h-4.987v-3.406h13.866v3.406h-5.108v13.258h-3.527V76.549H887.105z"/>
	<path fill="#FFFFFF" d="M898.173,73.143h12.528v3.162h-8.879v3.406h7.906v3.162h-7.906V86.4h9.122v3.162h-12.65v-16.42h-0.121
		V73.143z"/>
	<path fill="#FFFFFF" d="M913.5,73.143h7.541c2.189,0,3.77,0.608,4.744,1.824c0.973,0.973,1.338,2.189,1.338,3.771l0,0
		c0,2.797-1.338,4.379-3.527,5.108l4.135,5.96h-4.379l-3.527-5.352h-2.919v5.352h-3.527V73.143H913.5z M920.797,81.292
		c1.824,0,2.797-0.973,2.797-2.433l0,0c0-1.581-1.216-2.433-2.919-2.433h-3.527v4.744h3.649V81.292z"/>
	<path fill="#FFFFFF" d="M936.609,73.143h3.406l7.784,10.339V73.143h3.527v16.663h-3.162l-8.149-10.46v10.46h-3.527V73.143H936.609z
		"/>
	<path fill="#FFFFFF" d="M954.124,81.535L954.124,81.535c0-4.744,3.771-8.757,8.879-8.757s8.757,3.771,8.757,8.514l0,0
		c0,4.744-3.771,8.514-8.879,8.514C957.651,89.806,954.124,86.279,954.124,81.535z M967.99,81.535L967.99,81.535
		c0-2.919-2.189-5.352-4.987-5.352s-4.987,2.433-4.987,5.108l0,0c0,2.797,2.189,5.108,4.987,5.108S967.99,84.455,967.99,81.535z"/>
	<path fill="#FFFFFF" d="M972.125,73.143h4.014l3.406,11.312l3.771-11.312h3.162l3.77,11.312l3.406-11.312h3.771l-5.717,16.907
		h-3.284l-3.771-10.947l-3.77,10.947h-3.162L972.125,73.143z"/>
</g>
<g>
	<path fill="#FFFFFF" d="M441.819,55.872l7.541-6.69c3.162-2.797,4.379-4.5,4.379-6.568c0-2.433-1.946-4.014-4.135-4.014
		c-2.433,0-4.014,1.216-5.595,3.527l-1.824-1.216c1.824-2.797,3.771-4.379,7.541-4.379c3.771,0,6.568,2.554,6.568,5.96l0,0
		c0,2.919-1.581,4.987-5.352,8.149l-5.595,4.987h11.068v2.189h-14.474v-1.946h-0.122V55.872z"/>
	<path fill="#FFFFFF" d="M459.456,47.601h8.271v2.433h-8.271V47.601z"/>
	<path fill="#FFFFFF" d="M470.159,54.29l1.824-1.581c1.581,1.946,3.527,3.162,6.203,3.162s4.5-1.581,4.5-4.014l0,0
		c0-2.554-2.433-4.014-5.717-4.014h-1.338l-0.365-1.338l6.568-7.298h-10.339v-2.189h13.379v1.824l-6.568,7.298
		c3.527,0.365,6.933,1.946,6.933,5.96l0,0c0,3.771-3.162,6.325-6.933,6.325C474.294,58.061,471.74,56.48,470.159,54.29z"/>
	<path fill="#FFFFFF" d="M497.283,36.897h2.189l13.136,16.663V36.897h2.433v20.799h-1.824l-13.501-17.028v17.028h-2.433
		L497.283,36.897L497.283,36.897z"/>
	<path fill="#FFFFFF" d="M518.689,50.155L518.689,50.155c0-4.379,3.406-8.149,7.906-8.149s7.906,3.527,7.906,7.906l0,0
		c0,4.379-3.406,7.906-8.149,7.906C521.851,58.061,518.689,54.534,518.689,50.155z M532.433,50.155L532.433,50.155
		c0-3.406-2.433-6.203-5.717-6.203c-3.406,0-5.595,2.797-5.595,5.96l0,0c0,3.406,2.433,5.96,5.717,5.96
		C530.001,56.115,532.433,53.317,532.433,50.155z"/>
	<path fill="#FFFFFF" d="M535.596,42.492h2.554l5.108,12.649l5.108-12.649h2.433l-6.69,15.447h-1.946L535.596,42.492z"/>
	<path fill="#FFFFFF" d="M552.016,50.155L552.016,50.155c0-4.5,3.162-8.149,7.298-8.149c4.5,0,7.176,3.527,7.176,8.149
		c0,0.365,0,0.365,0,0.851h-12.041c0.365,3.406,2.797,5.108,5.352,5.108c2.189,0,3.527-0.851,4.744-2.189l1.338,1.216
		c-1.581,1.824-3.406,2.919-6.325,2.919C555.422,58.061,552.016,54.899,552.016,50.155z M564.301,49.182
		c-0.243-2.797-1.824-5.108-4.987-5.108c-2.797,0-4.744,2.189-4.987,5.108H564.301z"/>
	<path fill="#FFFFFF" d="M569.896,42.492h2.433v2.554c0.973-1.581,2.433-2.919,4.987-2.919c2.554,0,4.135,1.338,4.987,2.919
		c1.216-1.824,2.797-2.919,5.352-2.919c3.527,0,5.717,2.433,5.717,6.203v9.487h-2.433v-8.879c0-2.919-1.581-4.5-4.014-4.5
		s-4.135,1.824-4.135,4.744v8.879h-2.433v-9.122c0-2.919-1.581-4.5-4.014-4.5s-4.379,1.946-4.379,4.744v8.757h-2.433V42.615h0.365
		V42.492z"/>
	<path fill="#FFFFFF" d="M599.573,54.777v2.919h-2.433v-21.65h2.433v9.487c1.216-1.824,2.919-3.406,5.96-3.406
		c3.771,0,7.298,2.919,7.298,7.906l0,0c0,4.987-3.527,7.906-7.298,7.906C602.735,58.061,600.79,56.48,599.573,54.777z
		 M610.52,50.155L610.52,50.155c0-3.771-2.554-5.96-5.352-5.96s-5.595,2.433-5.595,5.96l0,0c0,3.527,2.797,5.96,5.595,5.96
		C608.088,55.872,610.52,53.804,610.52,50.155z"/>
	<path fill="#FFFFFF" d="M615.506,50.155L615.506,50.155c0-4.5,3.162-8.149,7.298-8.149c4.5,0,7.176,3.527,7.176,8.149
		c0,0.365,0,0.365,0,0.851h-12.285c0.365,3.406,2.798,5.108,5.352,5.108c2.189,0,3.527-0.851,4.744-2.189l1.338,1.216
		c-1.581,1.824-3.406,2.919-6.325,2.919C618.791,58.061,615.506,54.899,615.506,50.155z M627.548,49.182
		c-0.243-2.797-1.824-5.108-4.987-5.108c-2.797,0-4.744,2.189-4.987,5.108H627.548z"/>
	<path fill="#FFFFFF" d="M633.265,42.492h2.433v4.014c1.216-2.554,3.406-4.379,6.325-4.379v2.433h-0.243
		c-3.406,0-6.203,2.433-6.203,7.176v6.203h-2.433V42.492L633.265,42.492L633.265,42.492z"/>
	<path fill="#FFFFFF" d="M651.51,55.872l7.541-6.69c3.162-2.797,4.379-4.5,4.379-6.568c0-2.433-1.946-4.014-4.135-4.014
		c-2.433,0-4.014,1.216-5.595,3.527l-1.824-1.216c1.824-2.797,3.771-4.379,7.541-4.379s6.568,2.554,6.568,5.96l0,0
		c0,2.919-1.581,4.987-5.352,8.149l-5.595,4.987h11.068v2.189h-14.474v-1.946h-0.122V55.872z"/>
	<path fill="#FFFFFF" d="M669.023,47.357L669.023,47.357c0-5.96,3.527-10.947,8.879-10.947s8.757,4.987,8.757,10.703l0,0
		c0,5.717-3.406,10.703-8.757,10.703C672.429,58.061,669.023,53.196,669.023,47.357z M684.228,47.357L684.228,47.357
		c0-4.5-2.554-8.757-6.325-8.757c-4.014,0-6.325,4.014-6.325,8.514l0,0c0,4.5,2.554,8.514,6.325,8.514
		S684.228,51.979,684.228,47.357z"/>
	<path fill="#FFFFFF" d="M692.984,39.33l-4.014,1.216l-0.608-1.946l5.108-1.824h1.824v21.042h-2.433V39.33H692.984z"/>
	<path fill="#FFFFFF" d="M710.985,39.087h-11.555v-2.189h14.109v1.824l-9.487,18.974h-2.554L710.985,39.087z"/>
	<path fill="#FFFFFF" d="M441.941,86.401l1.338-1.824c2.189,1.946,4.135,2.919,7.176,2.919c2.797,0,4.5-1.581,4.5-3.527l0,0
		c0-1.946-0.973-2.919-5.352-4.014c-4.744-0.973-6.933-2.554-6.933-5.96l0,0c0-3.162,2.919-5.717,6.933-5.717
		c2.919,0,5.108,0.851,7.298,2.554l-1.338,1.824c-1.946-1.581-3.771-2.189-5.96-2.189c-2.797,0-4.379,1.581-4.379,3.406l0,0
		c0,1.946,0.973,2.919,5.717,4.014c4.5,0.973,6.69,2.797,6.69,5.96l0,0c0,3.527-2.919,5.96-7.176,5.96
		C447.171,89.806,444.617,88.59,441.941,86.401z"/>
	<path fill="#FFFFFF" d="M460.064,85.063L460.064,85.063c0-3.406,2.554-4.987,6.568-4.987c1.946,0,3.406,0.243,4.744,0.608v-0.608
		c0-2.797-1.824-4.135-4.5-4.135c-1.824,0-3.162,0.365-4.744,1.216l-0.608-1.824c1.824-0.851,3.406-1.216,5.595-1.216
		s3.771,0.608,4.987,1.824c0.973,0.973,1.581,2.554,1.581,4.5v9.365h-2.189v-2.433c-0.973,1.338-2.797,2.554-5.595,2.554
		C462.983,89.806,460.064,88.225,460.064,85.063z M471.497,83.846v-1.581c-1.216-0.365-2.554-0.608-4.5-0.608
		c-2.919,0-4.5,1.216-4.5,3.162l0,0c0,1.946,1.824,2.919,3.771,2.919C469.186,88.103,471.497,86.279,471.497,83.846z"/>
	<path fill="#FFFFFF" d="M477.701,74.116h2.433v2.797c0.973-1.581,2.554-2.919,5.352-2.919c3.771,0,5.96,2.554,5.96,6.203v9.487
		h-2.433v-8.879c0-2.797-1.581-4.5-4.135-4.5s-4.5,1.946-4.5,4.744v8.757h-2.554v-15.69L477.701,74.116L477.701,74.116z"/>
	<path fill="#FFFFFF" d="M503.85,68.643h14.839v2.189H506.04v7.541h11.312v2.189H506.04v9.122h-2.433V68.642h0.243V68.643z"/>
	<path fill="#FFFFFF" d="M522.339,74.116h2.433v4.014c1.216-2.554,3.406-4.379,6.325-4.379v2.433h-0.243
		c-3.406,0-6.203,2.433-6.203,7.176v6.203h-2.433V74.116L522.339,74.116L522.339,74.116z"/>
	<path fill="#FFFFFF" d="M531.583,85.063L531.583,85.063c0-3.406,2.554-4.987,6.568-4.987c1.946,0,3.406,0.243,4.744,0.608v-0.608
		c0-2.797-1.824-4.135-4.5-4.135c-1.824,0-3.162,0.365-4.744,1.216l-0.608-1.824c1.824-0.851,3.406-1.216,5.595-1.216
		s3.771,0.608,4.987,1.824c0.973,0.973,1.581,2.554,1.581,4.5v9.365h-2.189v-2.433c-0.973,1.338-2.797,2.554-5.595,2.554
		C534.624,89.806,531.583,88.225,531.583,85.063z M543.137,83.846v-1.581c-1.216-0.365-2.554-0.608-4.5-0.608
		c-2.919,0-4.5,1.216-4.5,3.162l0,0c0,1.946,1.824,2.919,3.771,2.919C540.704,88.103,543.137,86.279,543.137,83.846z"/>
	<path fill="#FFFFFF" d="M549.219,74.116h2.433v2.797c0.973-1.581,2.554-2.919,5.352-2.919c3.771,0,5.96,2.554,5.96,6.203v9.487
		h-2.433v-8.879c0-2.797-1.581-4.5-4.135-4.5c-2.554,0-4.5,1.946-4.5,4.744v8.757h-2.433V74.359h-0.243L549.219,74.116
		L549.219,74.116z"/>
	<path fill="#FFFFFF" d="M565.881,81.9L565.881,81.9c0-4.379,3.406-8.149,7.906-8.149c2.919,0,4.744,1.216,6.203,2.797l-1.581,1.581
		c-1.216-1.216-2.554-2.433-4.744-2.433c-3.162,0-5.595,2.554-5.595,5.96l0,0c0,3.406,2.433,5.96,5.595,5.96
		c1.946,0,3.527-0.973,4.744-2.433l1.338,1.338c-1.581,1.824-3.406,2.919-6.325,2.919C569.287,89.806,565.881,86.279,565.881,81.9z"
		/>
	<path fill="#FFFFFF" d="M583.153,68.278h2.554v2.554h-2.554V68.278z M583.396,74.116h2.433v15.569h-2.433V74.116z"/>
	<path fill="#FFFFFF" d="M588.87,87.495l1.216-1.581c1.581,1.216,3.527,1.946,5.352,1.946c1.824,0,3.162-0.973,3.162-2.433l0,0
		c0-1.581-1.824-2.189-3.771-2.797c-2.433-0.608-5.108-1.581-5.108-4.379l0,0c0-2.554,2.189-4.379,5.108-4.379
		c1.824,0,4.014,0.608,5.595,1.824l-0.973,1.824c-1.338-0.973-2.919-1.581-4.5-1.581c-1.824,0-2.919,0.973-2.919,2.189l0,0
		c0,1.338,1.946,1.946,4.014,2.554c2.433,0.851,4.987,1.581,4.987,4.379l0,0c0,2.919-2.433,4.5-5.595,4.5
		C593.126,89.806,590.694,88.833,588.87,87.495z"/>
	<path fill="#FFFFFF" d="M603.344,81.9L603.344,81.9c0-4.379,3.406-8.149,7.906-8.149c2.919,0,4.744,1.216,6.203,2.797l-1.581,1.581
		c-1.216-1.216-2.554-2.433-4.744-2.433c-3.162,0-5.595,2.554-5.595,5.96l0,0c0,3.406,2.433,5.96,5.595,5.96
		c1.946,0,3.527-0.973,4.744-2.433l1.338,1.338c-1.581,1.824-3.406,2.919-6.325,2.919C606.75,89.806,603.344,86.279,603.344,81.9z"
		/>
	<path fill="#FFFFFF" d="M619.033,81.9L619.033,81.9c0-4.379,3.406-8.149,7.906-8.149s7.906,3.527,7.906,7.906l0,0
		c0,4.379-3.406,7.906-8.149,7.906C622.439,89.806,619.033,86.279,619.033,81.9z M632.778,81.9L632.778,81.9
		c0-3.406-2.433-6.203-5.717-6.203c-3.284,0-5.595,2.797-5.595,5.96l0,0c0,3.406,2.433,5.96,5.717,5.96
		C630.589,87.86,632.778,85.063,632.778,81.9z"/>
	<path fill="#FFFFFF" d="M636.671,91.996c1.581-0.608,2.189-1.338,1.946-2.554h-0.973V86.28h2.797v2.797
		c0,2.433-0.973,3.527-3.406,4.135L636.671,91.996z"/>
	<path fill="#FFFFFF" d="M653.09,68.643h7.784c4.744,0,7.784,2.554,7.784,6.568l0,0c0,4.5-3.771,6.69-8.149,6.69h-4.987v7.298
		h-2.433L653.09,68.643L653.09,68.643z M660.51,79.954c3.406,0,5.717-1.824,5.717-4.5l0,0c0-2.919-2.189-4.5-5.595-4.5h-5.352v9.122
		h5.23V79.954z"/>
	<path fill="#FFFFFF" d="M671.822,68.278h2.554v2.554h-2.554V68.278z M671.943,74.116h2.433v15.569h-2.433V74.116z"/>
	<path fill="#FFFFFF" d="M677.902,81.9L677.902,81.9c0-4.5,3.162-8.149,7.298-8.149c4.5,0,7.176,3.527,7.176,8.149
		c0,0.365,0,0.365,0,0.851h-12.285c0.365,3.406,2.797,5.108,5.352,5.108c2.189,0,3.527-0.851,4.744-2.189l1.338,1.216
		c-1.581,1.824-3.406,2.919-6.325,2.919C681.308,89.806,677.902,86.644,677.902,81.9z M690.188,80.927
		c-0.243-2.797-1.824-5.108-4.987-5.108c-2.797,0-4.744,2.189-4.987,5.108H690.188z"/>
	<path fill="#FFFFFF" d="M695.782,74.116h2.433v4.014c1.216-2.554,3.406-4.379,6.325-4.379v2.433h-0.243
		c-3.406,0-6.203,2.433-6.203,7.176v6.203h-2.433V74.116L695.782,74.116L695.782,74.116z"/>
	<path fill="#FFFFFF" d="M714.026,87.617l7.541-6.69c3.162-2.797,4.379-4.5,4.379-6.568c0-2.433-1.946-4.014-4.135-4.014
		c-2.433,0-4.014,1.216-5.595,3.527l-1.824-1.216c1.824-2.797,3.771-4.379,7.541-4.379c3.771,0,6.568,2.554,6.568,5.96l0,0
		c0,2.919-1.581,4.987-5.352,8.149l-5.595,4.744h11.068v2.189h-14.474v-1.824h-0.122L714.026,87.617L714.026,87.617z"/>
	<path fill="#FFFFFF" d="M742.731,70.832h-11.312v-2.189h14.109v1.824l-9.487,18.974h-2.554L742.731,70.832z"/>
</g>
</svg>
