<?xml version="1.0" encoding="utf-8"?>
<!-- Generator: Adobe Illustrator 18.1.1, SVG Export Plug-In . SVG Version: 6.00 Build 0)  -->
<svg version="1.1" id="Layer_1" xmlns="http://www.w3.org/2000/svg" xmlns:xlink="http://www.w3.org/1999/xlink" x="0px" y="0px"
	 viewBox="0 229.4 841.9 133.9" enable-background="new 0 229.4 841.9 133.9" xml:space="preserve">
<g>
	<polygon fill="#FFFFFF" points="202.7,255.2 212.8,255.2 212.8,275 231.2,255.2 243.2,255.2 224.6,274.4 244,300.5 232,300.5 
		218,281.2 212.8,286.6 212.8,300.5 202.7,300.5 	"/>
	<path fill="#FFFFFF" d="M238.8,283.3L238.8,283.3c0-10.1,7.9-18.2,18.8-18.2c10.7,0,18.8,7.9,18.8,18v0.2c0,9.9-7.9,18-18.8,18
		C246.7,301.3,238.8,293.4,238.8,283.3 M266.5,283.3L266.5,283.3c0-5.2-3.7-9.7-9.1-9.7c-5.6,0-8.9,4.3-8.9,9.5v0.2
		c0,5,3.7,9.5,9.1,9.5C263.2,292.8,266.5,288.5,266.5,283.3"/>
	<path fill="#FFFFFF" d="M279.1,290.7v-16.5H275v-8.3h4.1v-8.9h9.9v8.9h8.1v8.3h-8.3v14.9c0,2.3,1,3.3,3.1,3.3
		c1.7,0,3.5-0.4,4.8-1.2v7.9c-2.1,1.2-4.5,1.9-7.8,1.9C283.1,301.1,279.1,298.6,279.1,290.7"/>
	<rect x="299.8" y="253.3" fill="#FFFFFF" width="9.9" height="47.3"/>
	<path fill="#FFFFFF" d="M313.2,253.3h10.3v8.7h-10.3V253.3z M313.6,265.9h9.9v34.7h-9.9V265.9z"/>
	<path fill="#FFFFFF" d="M327.1,265.9h9.9v4.8c2.3-2.9,5.2-5.6,10.1-5.6c7.4,0,11.8,4.8,11.8,13v22.5H349v-19.4c0-4.7-2.1-7-6-7
		c-3.7,0-6.2,2.3-6.2,7v19.4h-9.9v-34.7H327.1z"/>
	<g>
		<path fill="#FFFFFF" d="M373.5,277.9L373.5,277.9c0-13.4,9.9-24.4,23.5-24.4c8.3,0,13.4,3.1,18.2,7.6l-2.5,2.5
			c-4.1-3.9-8.7-7-15.9-7c-11.2,0-19.8,9.3-19.8,21.1v0.2c0,11.8,8.7,21.1,20,21.1c6.8,0,11.4-2.7,16.3-7.4l2.3,2.3
			c-5,4.8-10.3,8.1-18.6,8.1C383.3,302.1,373.5,291.4,373.5,277.9z"/>
		<path fill="#FFFFFF" d="M416.3,284.3L416.3,284.3c0-9.7,7.4-18,17.6-18c10.1,0,17.6,8.1,17.6,17.8v0.2c0,9.7-7.4,18-17.6,18
			C423.9,302.1,416.3,294,416.3,284.3z M448.1,284.3L448.1,284.3c0-8.3-6.2-14.9-14.1-14.9c-8.1,0-14,6.6-14,14.7v0.2
			c0,8.3,6.2,14.9,14.1,14.9C442.3,299,448.1,292.4,448.1,284.3z"/>
		<path fill="#FFFFFF" d="M456.8,267h3.3v6.4c2.3-4.1,6.2-7.2,12.4-7.2c8.7,0,13.8,6,13.8,14.1v20.9H483V281c0-7-3.9-11.6-10.9-11.6
			c-6.8,0-11.8,5-11.8,12.2v19.8H457V267H456.8z"/>
		<path fill="#FFFFFF" d="M495,270.1h-5V267h5v-3.3c0-3.9,1.2-7,3.1-8.9c1.7-1.7,4.3-2.7,7.2-2.7c2.1,0,3.5,0.2,5,0.8v3.1
			c-1.9-0.6-3.3-1-5-1c-4.7,0-7,2.9-7,8.7v3.3h12v3.1h-12v31.2H495L495,270.1L495,270.1z"/>
	</g>
</g>
<g>
	<path fill="#FFFFFF" d="M540.3,272.1l7.4-6.6c3.1-2.7,4.3-4.5,4.3-6.4c0-2.3-1.9-3.9-4.1-3.9c-2.3,0-3.9,1.2-5.4,3.5l-1.7-1.2
		c1.7-2.7,3.7-4.3,7.4-4.3s6.4,2.5,6.4,5.8l0,0c0,2.9-1.6,4.8-5.2,7.9l-5.4,4.8h10.9v2.1h-14.1v-1.9H540.3z"/>
	<path fill="#FFFFFF" d="M557.4,263.9h8.1v2.3h-8.1V263.9z"/>
	<path fill="#FFFFFF" d="M567.8,270.5l1.7-1.6c1.6,1.9,3.5,3.1,6,3.1c2.5,0,4.5-1.6,4.5-3.9l0,0c0-2.5-2.3-3.9-5.6-3.9h-1.4
		l-0.4-1.4l6.4-7.2h-9.9v-2.1h13v1.7l-6.6,7c3.5,0.4,6.8,1.9,6.8,5.8l0,0c0,3.7-3.1,6.2-6.8,6.2
		C572.1,274.2,569.6,272.6,567.8,270.5z"/>
	<path fill="#FFFFFF" d="M594.4,253.5h2.1l12.8,16.3v-16.3h2.3v20.3h-1.7l-13.2-16.7v16.7h-2.3L594.4,253.5L594.4,253.5z"/>
	<path fill="#FFFFFF" d="M615.3,266.4L615.3,266.4c0-4.3,3.3-7.9,7.8-7.9c4.5,0,7.8,3.5,7.8,7.8l0,0c0,4.3-3.3,7.8-7.9,7.8
		C618.6,274.2,615.3,270.7,615.3,266.4z M628.7,266.4L628.7,266.4c0-3.3-2.3-6-5.6-6s-5.4,2.7-5.4,5.8l0,0c0,3.3,2.3,5.8,5.6,5.8
		C626.4,272.3,628.7,269.5,628.7,266.4z"/>
	<path fill="#FFFFFF" d="M632,258.9h2.5l5,12.4l5-12.4h2.3l-6.6,15.1h-1.9L632,258.9z"/>
	<path fill="#FFFFFF" d="M647.9,266.4L647.9,266.4c0-4.5,3.1-7.9,7.2-7.9c4.5,0,7,3.5,7,7.9c0,0.4,0,0.4,0,0.8h-11.8
		c0.4,3.3,2.7,5,5.2,5c2.1,0,3.5-0.8,4.7-2.1l1.4,1.2c-1.6,1.7-3.3,2.9-6.2,2.9C651.4,274.2,647.9,271.1,647.9,266.4z M659.9,265.5
		c-0.2-2.7-1.7-5-4.8-5c-2.7,0-4.7,2.1-4.8,5H659.9z"/>
	<path fill="#FFFFFF" d="M665.3,258.9h2.3v2.5c1-1.6,2.3-2.9,4.8-2.9c2.5,0,4.1,1.4,4.8,2.9c1.2-1.7,2.7-2.9,5.2-2.9
		c3.5,0,5.6,2.3,5.6,6v9.3h-2.3v-8.7c0-2.9-1.6-4.5-3.9-4.5s-4.1,1.7-4.1,4.7v8.7h-2.3v-8.9c0-2.9-1.6-4.5-3.9-4.5s-4.3,1.9-4.3,4.7
		v8.5h-2.3v-14.9H665.3z"/>
	<path fill="#FFFFFF" d="M694.4,270.9v2.9h-2.3v-21.1h2.3v9.3c1.2-1.7,2.9-3.3,5.8-3.3c3.7,0,7.2,2.9,7.2,7.8l0,0
		c0,4.8-3.5,7.8-7.2,7.8C697.5,274.2,695.6,272.6,694.4,270.9z M705.1,266.4L705.1,266.4c0-3.7-2.5-5.8-5.2-5.8s-5.4,2.3-5.4,5.8
		l0,0c0,3.5,2.7,5.8,5.4,5.8C702.7,272.3,705.1,270.1,705.1,266.4z"/>
	<path fill="#FFFFFF" d="M709.9,266.4L709.9,266.4c0-4.5,3.1-7.9,7.2-7.9c4.5,0,7,3.5,7,7.9c0,0.4,0,0.4,0,0.8h-11.8
		c0.4,3.3,2.7,5,5.2,5c2.1,0,3.5-0.8,4.7-2.1l1.4,1.2c-1.6,1.7-3.3,2.9-6.2,2.9C713.2,274.2,709.9,271.1,709.9,266.4z M721.9,265.5
		c-0.2-2.7-1.7-5-4.8-5c-2.7,0-4.7,2.1-4.8,5H721.9z"/>
	<path fill="#FFFFFF" d="M727.4,258.9h2.3v3.9c1.2-2.5,3.3-4.3,6.2-4.3v2.3h-0.2c-3.3,0-6,2.3-6,7v6h-2.3V258.9z"/>
	<path fill="#FFFFFF" d="M745.2,272.1l7.4-6.6c3.1-2.7,4.3-4.5,4.3-6.4c0-2.3-1.9-3.9-4.1-3.9c-2.3,0-3.9,1.2-5.4,3.5l-1.7-1.2
		c1.7-2.7,3.7-4.3,7.4-4.3s6.4,2.5,6.4,5.8l0,0c0,2.9-1.6,4.8-5.2,7.9l-5.4,4.8h10.9v2.1h-14.1v-1.9H745.2z"/>
	<path fill="#FFFFFF" d="M762.4,263.7L762.4,263.7c0-5.8,3.5-10.7,8.7-10.7c5.2,0,8.5,4.8,8.5,10.5l0,0c0,5.6-3.3,10.5-8.5,10.5
		C765.7,274.2,762.4,269.5,762.4,263.7z M777.2,263.7L777.2,263.7c0-4.5-2.5-8.5-6.2-8.5c-3.9,0-6.2,3.9-6.2,8.3l0,0
		c0,4.5,2.5,8.3,6.2,8.3S777.2,268.2,777.2,263.7z"/>
	<path fill="#FFFFFF" d="M785.7,255.8l-3.9,1.2l-0.6-1.9l5-1.7h1.7v20.5h-2.3V255.8z"/>
	<path fill="#FFFFFF" d="M803.3,255.6h-11.2v-2.1h13.8v1.7l-9.3,18.6H794L803.3,255.6z"/>
	<path fill="#FFFFFF" d="M540.3,307.7l1.4-1.7c2.1,1.9,4.1,2.9,7,2.9c2.7,0,4.5-1.6,4.5-3.5l0,0c0-1.9-1-2.9-5.2-3.9
		c-4.7-1-6.8-2.5-6.8-5.8l0,0c0-3.1,2.9-5.6,6.8-5.6c2.9,0,5,0.8,7.2,2.5l-1.4,1.7c-1.9-1.6-3.7-2.1-5.8-2.1c-2.7,0-4.3,1.6-4.3,3.3
		l0,0c0,1.9,1,2.9,5.6,3.9c4.5,1,6.6,2.7,6.6,5.8l0,0c0,3.5-2.9,5.8-7,5.8C545.6,311,542.8,309.8,540.3,307.7z"/>
	<path fill="#FFFFFF" d="M558.2,306.4L558.2,306.4c0-3.3,2.5-4.8,6.4-4.8c1.9,0,3.3,0.2,4.7,0.6v-0.6c0-2.7-1.7-4.1-4.5-4.1
		c-1.7,0-3.1,0.4-4.7,1.2l-0.6-1.7c1.7-0.8,3.3-1.2,5.4-1.2s3.7,0.6,4.8,1.7c1,1,1.6,2.5,1.6,4.5v9.1h-2.1v-2.3
		c-1,1.4-2.7,2.5-5.4,2.5C560.9,311,558.2,309.5,558.2,306.4z M569.2,305.2v-1.6c-1.2-0.4-2.5-0.6-4.5-0.6c-2.9,0-4.5,1.2-4.5,3.1
		l0,0c0,1.9,1.7,2.9,3.7,2.9C566.9,309.3,569.2,307.5,569.2,305.2z"/>
	<path fill="#FFFFFF" d="M575.4,295.7h2.3v2.7c1-1.6,2.5-2.9,5.2-2.9c3.7,0,5.8,2.5,5.8,6v9.3h-2.3v-8.7c0-2.7-1.6-4.5-4.1-4.5
		c-2.5,0-4.5,1.9-4.5,4.7v8.5h-2.3v-15.1H575.4z"/>
	<path fill="#FFFFFF" d="M600.8,290.3h14.5v2.1h-12.4v7.4h11v2.1h-11v8.9h-2.1V290.3z"/>
	<path fill="#FFFFFF" d="M618.8,295.7h2.3v3.9c1.2-2.5,3.3-4.3,6.2-4.3v2.3h-0.2c-3.3,0-6,2.3-6,7v6h-2.3V295.7z"/>
	<path fill="#FFFFFF" d="M628.1,306.4L628.1,306.4c0-3.3,2.5-4.8,6.4-4.8c1.9,0,3.3,0.2,4.7,0.6v-0.6c0-2.7-1.7-4.1-4.5-4.1
		c-1.7,0-3.1,0.4-4.7,1.2l-0.6-1.7c1.7-0.8,3.3-1.2,5.4-1.2c2.1,0,3.7,0.6,4.8,1.7c1,1,1.6,2.5,1.6,4.5v9.1h-2.1v-2.3
		c-1,1.4-2.7,2.5-5.4,2.5C630.8,311,628.1,309.5,628.1,306.4z M639.2,305.2v-1.6c-1.2-0.4-2.5-0.6-4.5-0.6c-2.9,0-4.5,1.2-4.5,3.1
		l0,0c0,1.9,1.7,2.9,3.7,2.9C636.8,309.3,639.2,307.5,639.2,305.2z"/>
	<path fill="#FFFFFF" d="M645.4,295.7h2.3v2.7c1-1.6,2.5-2.9,5.2-2.9c3.7,0,5.8,2.5,5.8,6v9.3h-2.3v-8.7c0-2.7-1.6-4.5-4.1-4.5
		s-4.5,1.9-4.5,4.7v8.5h-2.5V295.7z"/>
	<path fill="#FFFFFF" d="M661.5,303.3L661.5,303.3c0-4.3,3.3-7.9,7.8-7.9c2.9,0,4.7,1.2,6,2.7l-1.6,1.6c-1.2-1.2-2.5-2.3-4.7-2.3
		c-3.1,0-5.4,2.5-5.4,5.8l0,0c0,3.3,2.3,5.8,5.4,5.8c1.9,0,3.5-1,4.7-2.3l1.4,1.4c-1.6,1.7-3.3,2.9-6.2,2.9
		C664.8,311,661.5,307.5,661.5,303.3z"/>
	<path fill="#FFFFFF" d="M678.3,289.9h2.5v2.5h-2.5V289.9z M678.5,295.7h2.3v15.1h-2.3V295.7z"/>
	<path fill="#FFFFFF" d="M683.9,308.7l1.2-1.6c1.6,1.2,3.5,1.9,5.2,1.9c1.7,0,3.1-1,3.1-2.3l0,0c0-1.6-1.7-2.1-3.7-2.7
		c-2.3-0.6-5-1.6-5-4.3l0,0c0-2.5,2.1-4.3,5-4.3c1.7,0,3.9,0.6,5.4,1.7l-1,1.7c-1.4-1-2.9-1.6-4.5-1.6c-1.7,0-2.9,1-2.9,2.1l0,0
		c0,1.4,1.9,1.9,3.9,2.5c2.3,0.8,4.8,1.6,4.8,4.3l0,0c0,2.9-2.3,4.5-5.4,4.5C688,311,685.7,310,683.9,308.7z"/>
	<path fill="#FFFFFF" d="M698.1,303.3L698.1,303.3c0-4.3,3.3-7.9,7.8-7.9c2.9,0,4.7,1.2,6,2.7l-1.6,1.6c-1.2-1.2-2.5-2.3-4.7-2.3
		c-3.1,0-5.4,2.5-5.4,5.8l0,0c0,3.3,2.3,5.8,5.4,5.8c1.9,0,3.5-1,4.7-2.3l1.4,1.4c-1.6,1.7-3.3,2.9-6.2,2.9
		C701.4,311,698.1,307.5,698.1,303.3z"/>
	<path fill="#FFFFFF" d="M713.6,303.3L713.6,303.3c0-4.3,3.3-7.9,7.8-7.9c4.5,0,7.8,3.5,7.8,7.8l0,0c0,4.3-3.3,7.8-7.9,7.8
		C716.9,311,713.6,307.5,713.6,303.3z M727,303.3L727,303.3c0-3.3-2.3-6-5.6-6c-3.3,0-5.4,2.7-5.4,5.8l0,0c0,3.3,2.3,5.8,5.6,5.8
		C724.6,309.1,727,306.4,727,303.3z"/>
	<path fill="#FFFFFF" d="M730.8,313.1c1.6-0.6,2.1-1.4,1.9-2.5h-1v-3.1h2.7v2.7c0,2.3-1,3.5-3.3,4.1L730.8,313.1z"/>
	<path fill="#FFFFFF" d="M746.7,290.3h7.6c4.7,0,7.6,2.5,7.6,6.4l0,0c0,4.5-3.7,6.6-7.9,6.6h-4.8v7.2h-2.3L746.7,290.3L746.7,290.3z
		 M754.1,301.3c3.3,0,5.6-1.7,5.6-4.5l0,0c0-2.9-2.1-4.5-5.4-4.5h-5.2v8.9H754.1z"/>
	<path fill="#FFFFFF" d="M765.1,289.9h2.5v2.5h-2.5V289.9z M765.1,295.7h2.3v15.1h-2.3V295.7z"/>
	<path fill="#FFFFFF" d="M771,303.3L771,303.3c0-4.5,3.1-7.9,7.2-7.9c4.5,0,7,3.5,7,7.9c0,0.4,0,0.4,0,0.8h-11.8
		c0.4,3.3,2.7,5,5.2,5c2.1,0,3.5-0.8,4.7-2.1l1.4,1.2c-1.6,1.7-3.3,2.9-6.2,2.9C774.4,311,771,307.9,771,303.3z M783,302.3
		c-0.2-2.7-1.7-5-4.8-5c-2.7,0-4.7,2.1-4.8,5H783z"/>
	<path fill="#FFFFFF" d="M788.4,295.7h2.3v3.9c1.2-2.5,3.3-4.3,6.2-4.3v2.3h-0.4c-3.3,0-6,2.3-6,7v6h-2.3v-14.9H788.4z"/>
	<path fill="#FFFFFF" d="M806.4,308.9l7.4-6.6c3.1-2.7,4.3-4.5,4.3-6.4c0-2.3-1.9-3.9-4.1-3.9c-2.3,0-3.9,1.2-5.4,3.5l-1.7-1.2
		c1.7-2.7,3.7-4.3,7.4-4.3c3.7,0,6.4,2.5,6.4,5.8l0,0c0,2.9-1.6,4.8-5.2,7.9l-5.4,4.8h10.9v2.1h-14.1v-1.9H806.4z"/>
	<path fill="#FFFFFF" d="M834.5,292.4h-11.2v-2.1H837v1.7l-9.3,18.6h-2.5L834.5,292.4z"/>
</g>
<g>
	<path fill="#FA8902" d="M202.5,328.6h9.7c2.7,0,4.8,0.8,6.2,2.1c1.2,1.2,1.7,2.7,1.7,4.7l0,0c0,3.5-2.1,5.6-5,6.6l5.8,8.1h-4.5
		l-5.2-7.6h-4.8v7.6h-3.9V328.6z M211.8,339.3c2.7,0,4.5-1.4,4.5-3.7l0,0c0-2.3-1.7-3.5-4.5-3.5h-5.6v7.2H211.8z"/>
	<path fill="#FA8902" d="M224,328.6h16.1v3.5h-12.2v5.6h10.9v3.5h-10.9v5.8h12.4v3.5h-16.1v-21.9H224z"/>
	<path fill="#FA8902" d="M243,339.5L243,339.5c0-6.2,4.7-11.2,11.2-11.2c3.7,0,6,1,8.3,2.9l-2.3,2.9c-1.7-1.4-3.3-2.3-6-2.3
		c-4.1,0-7,3.5-7,7.6l0,0c0,4.5,2.9,7.8,7.4,7.8c2.1,0,3.9-0.6,5.2-1.6v-4.1h-6v-3.3h9.1v9.1c-2.1,1.7-5.2,3.3-9.1,3.3
		C247.5,350.5,243,345.7,243,339.5z"/>
	<path fill="#FA8902" d="M267.6,328.6h3.9v21.7h-3.9V328.6z"/>
	<path fill="#FA8902" d="M274.8,347.1l2.3-2.7c2.1,1.7,4.3,2.7,6.8,2.7c2.3,0,3.9-1.2,3.9-2.7l0,0c0-1.6-0.8-2.3-4.8-3.3
		c-4.7-1.2-7.2-2.5-7.2-6.4l0,0c0-3.7,3.1-6.2,7.4-6.2c3.1,0,5.6,1,7.8,2.7l-2.1,2.9c-1.9-1.4-3.9-2.1-5.8-2.1
		c-2.1,0-3.5,1.2-3.5,2.5l0,0c0,1.7,1,2.3,5.2,3.5c4.7,1.2,7,2.7,7,6.4l0,0c0,4.1-3.1,6.4-7.8,6.4
		C280.6,350.5,277.5,349.4,274.8,347.1z"/>
	<path fill="#FA8902" d="M300.2,332.1h-6.8v-3.5h17.4v3.5h-6.8v18h-3.9V332.1z"/>
	<path fill="#FA8902" d="M314.2,328.6h16.1v3.5h-12.4v5.6h10.9v3.5h-10.9v5.8h12.4v3.5h-16.1L314.2,328.6L314.2,328.6z"/>
	<path fill="#FA8902" d="M333.9,328.6h9.7c2.7,0,4.8,0.8,6.2,2.1c1.2,1.2,1.7,2.7,1.7,4.7l0,0c0,3.5-2.1,5.6-5,6.6l5.8,8.1h-4.5
		l-5.2-7.6h-4.8v7.6h-3.9L333.9,328.6L333.9,328.6z M343.4,339.3c2.7,0,4.5-1.4,4.5-3.7l0,0c0-2.3-1.7-3.5-4.5-3.5h-5.6v7.2H343.4z"
		/>
	<path fill="#FA8902" d="M364,328.6h3.5l11.6,14.9v-14.9h3.7v21.7h-3.1L367.8,335v15.3h-3.7v-21.7H364z"/>
	<path fill="#FA8902" d="M386.6,339.5L386.6,339.5c0-6.2,4.7-11.2,11.2-11.2c6.6,0,11.2,5,11.2,11l0,0c0,6-4.7,11.2-11.2,11.2
		C391.3,350.5,386.6,345.5,386.6,339.5z M405.2,339.5L405.2,339.5c0-4.3-3.1-7.8-7.4-7.8c-4.3,0-7.4,3.5-7.4,7.6l0,0
		c0,4.3,3.1,7.8,7.4,7.8C402.1,347.1,405.2,343.8,405.2,339.5z"/>
	<path fill="#FA8902" d="M410.3,328.6h4.1l5.2,16.1l5.2-16.1h3.3l5.2,16.1l5.2-16.1h4.1l-7.6,21.7h-3.3l-5.2-15.5l-5.2,15.5H418
		L410.3,328.6z"/>
</g>
<polygon fill="#FA8902" points="0,229.4 0,363.3 84.5,349 167.8,363.3 167.8,229.4 "/>
<g>
	<g>
		<path fill="#FFFFFF" d="M47.9,283.1h11.5v3h-8.2v3.1h7.2v3h-7.2v3.2h8.3v3H47.9V283.1z"/>
		<path fill="#FFFFFF" d="M69.9,283H73l6.6,15.4h-3.5l-1.4-3.4h-6.5l-1.4,3.4h-3.4L69.9,283z M73.5,292l-2-5l-2,5H73.5z"/>
		<path fill="#FFFFFF" d="M84.1,283.1h7c2,0,3.5,0.5,4.5,1.5c0.9,0.9,1.3,2.1,1.3,3.5v0c0,2.5-1.3,4-3.3,4.8l3.7,5.5h-3.9l-3.3-4.9
			h-2.6v4.9h-3.4L84.1,283.1L84.1,283.1z M90.9,290.6c1.6,0,2.6-0.9,2.6-2.2v0c0-1.4-1-2.2-2.6-2.2h-3.4v4.4H90.9z"/>
		<path fill="#FFFFFF" d="M102.1,283.1h3.4v12.3h7.6v3h-11V283.1z"/>
		<path fill="#FFFFFF" d="M119.3,292.4l-5.9-9.3h3.9l3.7,6.1l3.7-6.1h3.8l-5.9,9.2v6.1h-3.4V292.4z"/>
	</g>
	<g>
		<path fill="#FFFFFF" d="M58,309.8h7.1c1.7,0,3.1,0.5,4,1.4c0.7,0.7,1.1,1.5,1.1,2.6v0c0,1.7-0.9,2.7-2,3.3
			c1.8,0.7,2.9,1.7,2.9,3.8v0c0,2.8-2.3,4.2-5.7,4.2H58L58,309.8L58,309.8z M66.8,314.4c0-1-0.8-1.6-2.2-1.6h-3.3v3.3h3.1
			C65.8,316,66.8,315.6,66.8,314.4L66.8,314.4L66.8,314.4z M65.1,318.8h-3.9v3.4h4c1.5,0,2.4-0.5,2.4-1.7v0
			C67.6,319.5,66.9,318.8,65.1,318.8z"/>
		<path fill="#FFFFFF" d="M76.1,309.8h3.4v15.3h-3.4V309.8L76.1,309.8z"/>
		<path fill="#FFFFFF" d="M85.5,309.8h7c2,0,3.5,0.5,4.5,1.5c0.9,0.9,1.3,2.1,1.3,3.5v0c0,2.5-1.3,4-3.3,4.8l3.7,5.5h-3.9l-3.3-4.9
			h-2.6v4.9h-3.4L85.5,309.8L85.5,309.8z M92.3,317.3c1.6,0,2.6-0.9,2.6-2.2v0c0-1.4-1-2.2-2.6-2.2h-3.4v4.4H92.3z"/>
		<path fill="#FFFFFF" d="M103.5,309.8h6c4.8,0,8.1,3.3,8.1,7.6v0c0,4.3-3.3,7.7-8.1,7.7h-6V309.8z M106.8,312.9v9.2h2.6
			c2.7,0,4.6-1.8,4.6-4.6v0c0-2.7-1.8-4.6-4.6-4.6L106.8,312.9L106.8,312.9z"/>
	</g>
	<path fill="#FFFFFF" d="M86.5,273.4l-0.6-2.9c-2.2-11-13.7-16.4-20.3-18.6c-3.8-1.3-6.7-1.9-6.7-1.9l-4.7-0.8l4.4-1.7
		c8.2-3.1,15.6-3.7,22.1-1.5c6.3,2.2,10,6.4,11.7,8.6c4.2-3.1,9.6-3.7,15.7-1.5c4.7,1.6,8.2,4.2,8.3,4.4l3.6,2.8l-4.4-0.4
		c-17-1.3-27,11.2-27.1,11.3L86.5,273.4z M66.5,249.3c6.6,2.3,17.8,7.6,21.5,18.2c3.3-3.3,11.2-9.8,22.8-10.5
		c-1.1-0.5-2.2-1-3.5-1.5c-5.7-2-10.6-1.4-14.3,2l-1.2,1.1l-0.9-1.6c0,0-3.5-6-11-8.6c-4.7-1.6-10-1.6-15.9-0.1
		C64.8,248.7,65.7,249,66.5,249.3z"/>
</g>
</svg>
