<?xml version="1.0" encoding="utf-8"?>
<!-- Generator: Adobe Illustrator 18.1.1, SVG Export Plug-In . SVG Version: 6.00 Build 0)  -->
<svg version="1.1" id="Layer_1" xmlns="http://www.w3.org/2000/svg" xmlns:xlink="http://www.w3.org/1999/xlink" x="0px" y="0px"
	 viewBox="0 0 434.4 70.4" enable-background="new 0 0 434.4 70.4" xml:space="preserve">
<g>
	<g>
		<polygon fill="#FFFFFF" points="104.6,13.3 109.8,13.3 109.8,23.5 119.3,13.3 125.5,13.3 115.9,23.2 125.9,36.7 119.7,36.7 
			112.5,26.7 109.8,29.5 109.8,36.7 104.6,36.7 		"/>
		<path fill="#FFFFFF" d="M123.2,27.8L123.2,27.8c0-5.2,4.1-9.4,9.7-9.4c5.5,0,9.7,4.1,9.7,9.3v0.1c0,5.1-4.1,9.3-9.7,9.3
			C127.3,37.1,123.2,33,123.2,27.8 M137.5,27.8L137.5,27.8c0-2.7-1.9-5-4.7-5c-2.9,0-4.6,2.2-4.6,4.9v0.1c0,2.6,1.9,4.9,4.7,4.9
			C135.8,32.7,137.5,30.5,137.5,27.8"/>
		<path fill="#FFFFFF" d="M144,31.6v-8.5h-2.1v-4.3h2.1v-4.6h5.1v4.6h4.2v4.3H149v7.7c0,1.2,0.5,1.7,1.6,1.7c0.9,0,1.8-0.2,2.5-0.6
			v4.1c-1.1,0.6-2.3,1-4,1C146.1,37,144,35.7,144,31.6"/>
		<rect x="154.7" y="12.3" fill="#FFFFFF" width="5.1" height="24.4"/>
		<path fill="#FFFFFF" d="M161.6,12.3h5.3v4.5h-5.3V12.3z M161.8,18.8h5.1v17.9h-5.1V18.8z"/>
		<path fill="#FFFFFF" d="M168.8,18.8h5.1v2.5c1.2-1.5,2.7-2.9,5.2-2.9c3.8,0,6.1,2.5,6.1,6.7v11.6h-5.1v-10c0-2.4-1.1-3.6-3.1-3.6
			c-1.9,0-3.2,1.2-3.2,3.6v10h-5.1V18.8z"/>
		<g>
			<path fill="#FFFFFF" d="M192.7,25L192.7,25c0-6.9,5.1-12.6,12.1-12.6c4.3,0,6.9,1.6,9.4,3.9l-1.3,1.3c-2.1-2-4.5-3.6-8.2-3.6
				c-5.8,0-10.2,4.8-10.2,10.9v0.1c0,6.1,4.5,10.9,10.3,10.9c3.5,0,5.9-1.4,8.4-3.8l1.2,1.2c-2.6,2.5-5.3,4.2-9.6,4.2
				C197.8,37.5,192.7,32,192.7,25z"/>
			<path fill="#FFFFFF" d="M214.8,28.3L214.8,28.3c0-5,3.8-9.3,9.1-9.3c5.2,0,9.1,4.2,9.1,9.2v0.1c0,5-3.8,9.3-9.1,9.3
				C218.7,37.5,214.8,33.3,214.8,28.3z M231.2,28.3L231.2,28.3c0-4.3-3.2-7.7-7.3-7.7c-4.2,0-7.2,3.4-7.2,7.6v0.1
				c0,4.3,3.2,7.7,7.3,7.7C228.2,35.9,231.2,32.5,231.2,28.3z"/>
			<path fill="#FFFFFF" d="M235.7,19.4h1.7v3.3c1.2-2.1,3.2-3.7,6.4-3.7c4.5,0,7.1,3.1,7.1,7.3v10.8h-1.7V26.6c0-3.6-2-6-5.6-6
				c-3.5,0-6.1,2.6-6.1,6.3v10.2h-1.7V19.4z"/>
			<path fill="#FFFFFF" d="M255.4,21h-2.6v-1.6h2.6v-1.7c0-2,0.6-3.6,1.6-4.6c0.9-0.9,2.2-1.4,3.7-1.4c1.1,0,1.8,0.1,2.6,0.4v1.6
				c-1-0.3-1.7-0.5-2.6-0.5c-2.4,0-3.6,1.5-3.6,4.5v1.7h6.2V21h-6.2v16.1h-1.7V21z"/>
		</g>
	</g>
	<g>
		<path fill="#FFFFFF" d="M278.8,22l3.8-3.4c1.6-1.4,2.2-2.3,2.2-3.3c0-1.2-1-2-2.1-2c-1.2,0-2,0.6-2.8,1.8l-0.9-0.6
			c0.9-1.4,1.9-2.2,3.8-2.2c1.9,0,3.3,1.3,3.3,3v0c0,1.5-0.8,2.5-2.7,4.1l-2.8,2.5h5.6v1.1h-7.3V22z"/>
		<path fill="#FFFFFF" d="M287.6,17.8h4.2V19h-4.2V17.8z"/>
		<path fill="#FFFFFF" d="M293,21.2l0.9-0.8c0.8,1,1.8,1.6,3.1,1.6c1.3,0,2.3-0.8,2.3-2v0c0-1.3-1.2-2-2.9-2h-0.7l-0.2-0.7l3.3-3.7
			h-5.1v-1.1h6.7v0.9L297,17c1.8,0.2,3.5,1,3.5,3v0c0,1.9-1.6,3.2-3.5,3.2C295.2,23.1,293.9,22.3,293,21.2z"/>
		<path fill="#FFFFFF" d="M306.7,12.4h1.1l6.6,8.4v-8.4h1.2v10.5h-0.9l-6.8-8.6v8.6h-1.2V12.4z"/>
		<path fill="#FFFFFF" d="M317.5,19.1L317.5,19.1c0-2.2,1.7-4.1,4-4.1c2.3,0,4,1.8,4,4v0c0,2.2-1.7,4-4.1,4
			C319.2,23.1,317.5,21.3,317.5,19.1z M324.4,19.1L324.4,19.1c0-1.7-1.2-3.1-2.9-3.1c-1.7,0-2.8,1.4-2.8,3v0c0,1.7,1.2,3,2.9,3
			C323.2,22.1,324.4,20.7,324.4,19.1z"/>
		<path fill="#FFFFFF" d="M326.1,15.2h1.3l2.6,6.4l2.6-6.4h1.2l-3.4,7.8h-1L326.1,15.2z"/>
		<path fill="#FFFFFF" d="M334.3,19.1L334.3,19.1c0-2.3,1.6-4.1,3.7-4.1c2.3,0,3.6,1.8,3.6,4.1c0,0.2,0,0.2,0,0.4h-6.1
			c0.2,1.7,1.4,2.6,2.7,2.6c1.1,0,1.8-0.4,2.4-1.1l0.7,0.6c-0.8,0.9-1.7,1.5-3.2,1.5C336.1,23.1,334.3,21.5,334.3,19.1z M340.5,18.6
			c-0.1-1.4-0.9-2.6-2.5-2.6c-1.4,0-2.4,1.1-2.5,2.6H340.5z"/>
		<path fill="#FFFFFF" d="M343.3,15.2h1.2v1.3c0.5-0.8,1.2-1.5,2.5-1.5c1.3,0,2.1,0.7,2.5,1.5c0.6-0.9,1.4-1.5,2.7-1.5
			c1.8,0,2.9,1.2,2.9,3.1v4.8h-1.2v-4.5c0-1.5-0.8-2.3-2-2.3c-1.2,0-2.1,0.9-2.1,2.4v4.5h-1.2v-4.6c0-1.5-0.8-2.3-2-2.3
			s-2.2,1-2.2,2.4v4.4h-1.2V15.2z"/>
		<path fill="#FFFFFF" d="M358.3,21.4v1.5h-1.2V12h1.2v4.8c0.6-0.9,1.5-1.7,3-1.7c1.9,0,3.7,1.5,3.7,4v0c0,2.5-1.8,4-3.7,4
			C359.9,23.1,358.9,22.3,358.3,21.4z M363.8,19.1L363.8,19.1c0-1.9-1.3-3-2.7-3c-1.4,0-2.8,1.2-2.8,3v0c0,1.8,1.4,3,2.8,3
			C362.6,22.1,363.8,21,363.8,19.1z"/>
		<path fill="#FFFFFF" d="M366.3,19.1L366.3,19.1c0-2.3,1.6-4.1,3.7-4.1c2.3,0,3.6,1.8,3.6,4.1c0,0.2,0,0.2,0,0.4h-6.1
			c0.2,1.7,1.4,2.6,2.7,2.6c1.1,0,1.8-0.4,2.4-1.1l0.7,0.6c-0.8,0.9-1.7,1.5-3.2,1.5C368,23.1,366.3,21.5,366.3,19.1z M372.5,18.6
			c-0.1-1.4-0.9-2.6-2.5-2.6c-1.4,0-2.4,1.1-2.5,2.6H372.5z"/>
		<path fill="#FFFFFF" d="M375.3,15.2h1.2v2c0.6-1.3,1.7-2.2,3.2-2.2v1.2h-0.1c-1.7,0-3.1,1.2-3.1,3.6v3.1h-1.2V15.2z"/>
		<path fill="#FFFFFF" d="M384.5,22l3.8-3.4c1.6-1.4,2.2-2.3,2.2-3.3c0-1.2-1-2-2.1-2c-1.2,0-2,0.6-2.8,1.8l-0.9-0.6
			c0.9-1.4,1.9-2.2,3.8-2.2c1.9,0,3.3,1.3,3.3,3v0c0,1.5-0.8,2.5-2.7,4.1l-2.8,2.5h5.6v1.1h-7.3V22z"/>
		<path fill="#FFFFFF" d="M393.4,17.7L393.4,17.7c0-3,1.8-5.5,4.5-5.5s4.4,2.5,4.4,5.4v0c0,2.9-1.7,5.4-4.4,5.4
			C395.1,23.1,393.4,20.7,393.4,17.7z M401,17.7L401,17.7c0-2.3-1.3-4.4-3.2-4.4c-2,0-3.2,2-3.2,4.3v0c0,2.3,1.3,4.3,3.2,4.3
			S401,20,401,17.7z"/>
		<path fill="#FFFFFF" d="M405.4,13.6l-2,0.6l-0.3-1l2.6-0.9h0.9v10.6h-1.2V13.6z"/>
		<path fill="#FFFFFF" d="M414.5,13.5h-5.8v-1.1h7.1v0.9l-4.8,9.6h-1.3L414.5,13.5z"/>
		<path fill="#FFFFFF" d="M278.8,40.4l0.7-0.9c1.1,1,2.1,1.5,3.6,1.5c1.4,0,2.3-0.8,2.3-1.8v0c0-1-0.5-1.5-2.7-2
			c-2.4-0.5-3.5-1.3-3.5-3v0c0-1.6,1.5-2.9,3.5-2.9c1.5,0,2.6,0.4,3.7,1.3l-0.7,0.9c-1-0.8-1.9-1.1-3-1.1c-1.4,0-2.2,0.8-2.2,1.7v0
			c0,1,0.5,1.5,2.9,2c2.3,0.5,3.4,1.4,3.4,3v0c0,1.8-1.5,3-3.6,3C281.5,42.1,280.1,41.5,278.8,40.4z"/>
		<path fill="#FFFFFF" d="M288,39.7L288,39.7c0-1.7,1.3-2.5,3.3-2.5c1,0,1.7,0.1,2.4,0.3v-0.3c0-1.4-0.9-2.1-2.3-2.1
			c-0.9,0-1.6,0.2-2.4,0.6l-0.3-0.9c0.9-0.4,1.7-0.6,2.8-0.6c1.1,0,1.9,0.3,2.5,0.9c0.5,0.5,0.8,1.3,0.8,2.3v4.7h-1.1v-1.2
			c-0.5,0.7-1.4,1.3-2.8,1.3C289.4,42.1,288,41.3,288,39.7z M293.7,39.1v-0.8c-0.6-0.2-1.3-0.3-2.3-0.3c-1.5,0-2.3,0.6-2.3,1.6v0
			c0,1,0.9,1.5,1.9,1.5C292.5,41.2,293.7,40.3,293.7,39.1z"/>
		<path fill="#FFFFFF" d="M296.9,34.2h1.2v1.4c0.5-0.8,1.3-1.5,2.7-1.5c1.9,0,3,1.3,3,3.1v4.8h-1.2v-4.5c0-1.4-0.8-2.3-2.1-2.3
			c-1.3,0-2.3,1-2.3,2.4v4.4h-1.2V34.2z"/>
		<path fill="#FFFFFF" d="M310,31.4h7.5v1.1h-6.4v3.8h5.7v1.1h-5.7v4.6H310V31.4z"/>
		<path fill="#FFFFFF" d="M319.3,34.2h1.2v2c0.6-1.3,1.7-2.2,3.2-2.2v1.2h-0.1c-1.7,0-3.1,1.2-3.1,3.6v3.1h-1.2V34.2z"/>
		<path fill="#FFFFFF" d="M324.1,39.7L324.1,39.7c0-1.7,1.3-2.5,3.3-2.5c1,0,1.7,0.1,2.4,0.3v-0.3c0-1.4-0.9-2.1-2.3-2.1
			c-0.9,0-1.6,0.2-2.4,0.6l-0.3-0.9c0.9-0.4,1.7-0.6,2.8-0.6c1.1,0,1.9,0.3,2.5,0.9c0.5,0.5,0.8,1.3,0.8,2.3v4.7h-1.1v-1.2
			c-0.5,0.7-1.4,1.3-2.8,1.3C325.5,42.1,324.1,41.3,324.1,39.7z M329.8,39.1v-0.8c-0.6-0.2-1.3-0.3-2.3-0.3c-1.5,0-2.3,0.6-2.3,1.6
			v0c0,1,0.9,1.5,1.9,1.5C328.6,41.2,329.8,40.3,329.8,39.1z"/>
		<path fill="#FFFFFF" d="M333,34.2h1.2v1.4c0.5-0.8,1.3-1.5,2.7-1.5c1.9,0,3,1.3,3,3.1v4.8h-1.2v-4.5c0-1.4-0.8-2.3-2.1-2.3
			c-1.3,0-2.3,1-2.3,2.4v4.4H333V34.2z"/>
		<path fill="#FFFFFF" d="M341.3,38.1L341.3,38.1c0-2.2,1.7-4.1,4-4.1c1.5,0,2.4,0.6,3.1,1.4l-0.8,0.8c-0.6-0.6-1.3-1.2-2.4-1.2
			c-1.6,0-2.8,1.3-2.8,3v0c0,1.7,1.2,3,2.8,3c1,0,1.8-0.5,2.4-1.2l0.7,0.7c-0.8,0.9-1.7,1.5-3.2,1.5C343,42.1,341.3,40.3,341.3,38.1
			z"/>
		<path fill="#FFFFFF" d="M350,31.2h1.3v1.3H350V31.2z M350.1,34.2h1.2v7.8h-1.2V34.2z"/>
		<path fill="#FFFFFF" d="M352.9,40.9l0.6-0.8c0.8,0.6,1.8,1,2.7,1c0.9,0,1.6-0.5,1.6-1.2v0c0-0.8-0.9-1.1-1.9-1.4
			c-1.2-0.3-2.6-0.8-2.6-2.2v0c0-1.3,1.1-2.2,2.6-2.2c0.9,0,2,0.3,2.8,0.9l-0.5,0.9c-0.7-0.5-1.5-0.8-2.3-0.8
			c-0.9,0-1.5,0.5-1.5,1.1v0c0,0.7,1,1,2,1.3c1.2,0.4,2.5,0.8,2.5,2.2v0c0,1.5-1.2,2.3-2.8,2.3C355,42.1,353.8,41.6,352.9,40.9z"/>
		<path fill="#FFFFFF" d="M360.2,38.1L360.2,38.1c0-2.2,1.7-4.1,4-4.1c1.5,0,2.4,0.6,3.1,1.4l-0.8,0.8c-0.6-0.6-1.3-1.2-2.4-1.2
			c-1.6,0-2.8,1.3-2.8,3v0c0,1.7,1.2,3,2.8,3c1,0,1.8-0.5,2.4-1.2l0.7,0.7c-0.8,0.9-1.7,1.5-3.2,1.5
			C361.9,42.1,360.2,40.3,360.2,38.1z"/>
		<path fill="#FFFFFF" d="M368.2,38.1L368.2,38.1c0-2.2,1.7-4.1,4-4.1c2.3,0,4,1.8,4,4v0c0,2.2-1.7,4-4.1,4
			C369.9,42.1,368.2,40.3,368.2,38.1z M375.1,38.1L375.1,38.1c0-1.7-1.2-3.1-2.9-3.1c-1.7,0-2.8,1.4-2.8,3v0c0,1.7,1.2,3,2.9,3
			C373.9,41.1,375.1,39.7,375.1,38.1z"/>
		<path fill="#FFFFFF" d="M377.1,43.2c0.8-0.3,1.1-0.7,1-1.3h-0.5v-1.6h1.4v1.4c0,1.2-0.5,1.8-1.7,2.1L377.1,43.2z"/>
		<path fill="#FFFFFF" d="M385.3,31.4h3.9c2.4,0,3.9,1.3,3.9,3.3v0c0,2.3-1.9,3.4-4.1,3.4h-2.5v3.7h-1.2V31.4z M389.1,37.1
			c1.7,0,2.9-0.9,2.9-2.3v0c0-1.5-1.1-2.3-2.8-2.3h-2.7v4.6H389.1z"/>
		<path fill="#FFFFFF" d="M394.8,31.2h1.3v1.3h-1.3V31.2z M394.8,34.2h1.2v7.8h-1.2V34.2z"/>
		<path fill="#FFFFFF" d="M397.8,38.1L397.8,38.1c0-2.3,1.6-4.1,3.7-4.1c2.3,0,3.6,1.8,3.6,4.1c0,0.2,0,0.2,0,0.4H399
			c0.2,1.7,1.4,2.6,2.7,2.6c1.1,0,1.8-0.4,2.4-1.1l0.7,0.6c-0.8,0.9-1.7,1.5-3.2,1.5C399.6,42.1,397.8,40.5,397.8,38.1z M404,37.6
			c-0.1-1.4-0.9-2.6-2.5-2.6c-1.4,0-2.4,1.1-2.5,2.6H404z"/>
		<path fill="#FFFFFF" d="M406.8,34.2h1.2v2c0.6-1.3,1.7-2.2,3.2-2.2v1.2H411c-1.7,0-3.1,1.2-3.1,3.6v3.1h-1.2V34.2z"/>
		<path fill="#FFFFFF" d="M416.1,41l3.8-3.4c1.6-1.4,2.2-2.3,2.2-3.3c0-1.2-1-2-2.1-2c-1.2,0-2,0.6-2.8,1.8l-0.9-0.6
			c0.9-1.4,1.9-2.2,3.8-2.2c1.9,0,3.3,1.3,3.3,3v0c0,1.5-0.8,2.5-2.7,4.1l-2.8,2.5h5.6v1.1h-7.3V41z"/>
		<path fill="#FFFFFF" d="M430.6,32.5h-5.8v-1.1h7.1v0.9l-4.8,9.6h-1.3L430.6,32.5z"/>
	</g>
	<g>
		<path fill="#FA8902" d="M104.5,51.2h5c1.4,0,2.5,0.4,3.2,1.1c0.6,0.6,0.9,1.4,0.9,2.4v0c0,1.8-1.1,2.9-2.6,3.4l3,4.2h-2.3
			l-2.7-3.9h-2.5v3.9h-2V51.2z M109.3,56.7c1.4,0,2.3-0.7,2.3-1.9v0c0-1.2-0.9-1.8-2.3-1.8h-2.9v3.7H109.3z"/>
		<path fill="#FA8902" d="M115.6,51.2h8.3v1.8h-6.3v2.9h5.6v1.8h-5.6v3h6.4v1.8h-8.3V51.2z"/>
		<path fill="#FA8902" d="M125.4,56.8L125.4,56.8c0-3.2,2.4-5.8,5.8-5.8c1.9,0,3.1,0.5,4.3,1.5l-1.2,1.5c-0.9-0.7-1.7-1.2-3.1-1.2
			c-2.1,0-3.6,1.8-3.6,3.9v0c0,2.3,1.5,4,3.8,4c1.1,0,2-0.3,2.7-0.8v-2.1H131v-1.7h4.7v4.7c-1.1,0.9-2.7,1.7-4.7,1.7
			C127.7,62.5,125.4,60,125.4,56.8z"/>
		<path fill="#FA8902" d="M138.1,51.2h2v11.2h-2V51.2z"/>
		<path fill="#FA8902" d="M141.8,60.7l1.2-1.4c1.1,0.9,2.2,1.4,3.5,1.4c1.2,0,2-0.6,2-1.4v0c0-0.8-0.4-1.2-2.5-1.7
			c-2.4-0.6-3.7-1.3-3.7-3.3v0c0-1.9,1.6-3.2,3.8-3.2c1.6,0,2.9,0.5,4,1.4l-1.1,1.5c-1-0.7-2-1.1-3-1.1c-1.1,0-1.8,0.6-1.8,1.3v0
			c0,0.9,0.5,1.2,2.7,1.8c2.4,0.6,3.6,1.4,3.6,3.3v0c0,2.1-1.6,3.3-4,3.3C144.8,62.5,143.2,61.9,141.8,60.7z"/>
		<path fill="#FA8902" d="M154.9,53h-3.5v-1.8h9V53h-3.5v9.3h-2V53z"/>
		<path fill="#FA8902" d="M162.1,51.2h8.3v1.8H164v2.9h5.6v1.8H164v3h6.4v1.8h-8.3V51.2z"/>
		<path fill="#FA8902" d="M172.3,51.2h5c1.4,0,2.5,0.4,3.2,1.1c0.6,0.6,0.9,1.4,0.9,2.4v0c0,1.8-1.1,2.9-2.6,3.4l3,4.2h-2.3
			l-2.7-3.9h-2.5v3.9h-2V51.2z M177.2,56.7c1.4,0,2.3-0.7,2.3-1.9v0c0-1.2-0.9-1.8-2.3-1.8h-2.9v3.7H177.2z"/>
		<path fill="#FA8902" d="M187.8,51.2h1.8l6,7.7v-7.7h1.9v11.2h-1.6l-6.1-7.9v7.9h-1.9V51.2z"/>
		<path fill="#FA8902" d="M199.5,56.8L199.5,56.8c0-3.2,2.4-5.8,5.8-5.8c3.4,0,5.8,2.6,5.8,5.7v0c0,3.1-2.4,5.8-5.8,5.8
			S199.5,59.9,199.5,56.8z M209.1,56.8L209.1,56.8c0-2.2-1.6-4-3.8-4s-3.8,1.8-3.8,3.9v0c0,2.2,1.6,4,3.8,4S209.1,59,209.1,56.8z"/>
		<path fill="#FA8902" d="M211.7,51.2h2.1l2.7,8.3l2.7-8.3h1.7l2.7,8.3l2.7-8.3h2.1l-3.9,11.2h-1.7l-2.7-8l-2.7,8h-1.7L211.7,51.2z"
			/>
	</g>
	<g>
		<polygon fill="#FA8902" points="0,0 0,69.1 43.6,61.7 86.6,69.1 86.6,0 		"/>
		<g>
			<path fill="#FFFFFF" d="M24.6,29.7l0.9-1.1c0.6,0.5,1.3,0.8,2.1,0.8c0.6,0,1-0.2,1-0.6v0c0-0.4-0.2-0.6-1.4-0.9
				c-1.4-0.4-2.3-0.7-2.3-2.1v0c0-1.3,1-2.1,2.4-2.1c1,0,1.9,0.3,2.6,0.9l-0.8,1.1c-0.6-0.4-1.2-0.7-1.8-0.7c-0.6,0-0.9,0.3-0.9,0.6
				v0c0,0.4,0.3,0.6,1.5,0.9c1.4,0.4,2.2,0.9,2.2,2.1v0c0,1.4-1.1,2.1-2.5,2.1C26.5,30.8,25.4,30.4,24.6,29.7z"/>
			<path fill="#FFFFFF" d="M32.3,27.7v-3.9h1.5v3.9c0,1.1,0.6,1.7,1.5,1.7c0.9,0,1.5-0.6,1.5-1.7v-4h1.5v3.9c0,2.1-1.2,3.1-3,3.1
				C33.4,30.8,32.3,29.8,32.3,27.7z"/>
			<path fill="#FFFFFF" d="M40.8,23.8h2.8c1.7,0,2.6,1,2.6,2.4v0c0,1.6-1.2,2.4-2.8,2.4h-1.1v2.1h-1.5L40.8,23.8L40.8,23.8z
				 M43.6,27.2c0.8,0,1.2-0.4,1.2-1.1v0c0-0.7-0.5-1.1-1.2-1.1h-1.2v2.1L43.6,27.2L43.6,27.2z"/>
			<path fill="#FFFFFF" d="M48.4,23.8h5.2v1.4h-3.7v1.4h3.3v1.4H50v1.5h3.8v1.4h-5.3L48.4,23.8L48.4,23.8z"/>
			<path fill="#FFFFFF" d="M56,23.8h3.2c0.9,0,1.6,0.2,2,0.7c0.4,0.4,0.6,0.9,0.6,1.6v0c0,1.1-0.6,1.8-1.5,2.1l1.7,2.5h-1.8
				l-1.5-2.2h-1.2v2.2H56L56,23.8L56,23.8z M59.1,27.1c0.7,0,1.2-0.4,1.2-1v0c0-0.6-0.4-1-1.2-1h-1.5v2H59.1z"/>
			<path fill="#FFFFFF" d="M25.4,34.6h5.2V36h-3.7v1.4h3.3v1.4h-3.3v1.5h3.8v1.4h-5.3V34.6z"/>
			<path fill="#FFFFFF" d="M35.4,34.5h1.4l3,7h-1.6L37.5,40h-2.9L34,41.5h-1.5L35.4,34.5z M37,38.6l-0.9-2.2l-0.9,2.2H37z"/>
			<path fill="#FFFFFF" d="M41.8,34.6H45c0.9,0,1.6,0.2,2,0.7c0.4,0.4,0.6,0.9,0.6,1.6v0c0,1.1-0.6,1.8-1.5,2.1l1.7,2.5H46l-1.5-2.2
				h-1.2v2.2h-1.5L41.8,34.6L41.8,34.6z M44.9,38c0.7,0,1.2-0.4,1.2-1v0c0-0.6-0.4-1-1.2-1h-1.5v2H44.9z"/>
			<path fill="#FFFFFF" d="M50,34.6h1.5v5.5h3.4v1.4h-5V34.6z"/>
			<path fill="#FFFFFF" d="M57.7,38.8l-2.7-4.2h1.8l1.7,2.8l1.7-2.8h1.7l-2.7,4.2v2.8h-1.5V38.8z"/>
			<path fill="#FFFFFF" d="M30,45.4h3.2c0.8,0,1.4,0.2,1.8,0.6c0.3,0.3,0.5,0.7,0.5,1.2v0c0,0.8-0.4,1.2-0.9,1.5
				c0.8,0.3,1.3,0.8,1.3,1.7v0c0,1.3-1,1.9-2.6,1.9H30L30,45.4L30,45.4z M34,47.5c0-0.4-0.4-0.7-1-0.7h-1.5v1.5h1.4
				C33.5,48.2,34,48,34,47.5L34,47.5L34,47.5z M33.2,49.5h-1.8V51h1.8c0.7,0,1.1-0.2,1.1-0.8v0C34.4,49.8,34,49.5,33.2,49.5z"/>
			<path fill="#FFFFFF" d="M38.2,45.4h1.5v6.9h-1.5L38.2,45.4L38.2,45.4z"/>
			<path fill="#FFFFFF" d="M42.4,45.4h3.2c0.9,0,1.6,0.2,2,0.7c0.4,0.4,0.6,0.9,0.6,1.6v0c0,1.1-0.6,1.8-1.5,2.1l1.7,2.5h-1.8
				l-1.5-2.2h-1.2v2.2h-1.5L42.4,45.4L42.4,45.4z M45.5,48.8c0.7,0,1.2-0.4,1.2-1v0c0-0.6-0.4-1-1.2-1h-1.5v2H45.5z"/>
			<path fill="#FFFFFF" d="M50.6,45.4h2.7c2.2,0,3.7,1.5,3.7,3.4v0c0,1.9-1.5,3.5-3.7,3.5h-2.7V45.4z M52.1,46.8V51h1.2
				c1.2,0,2.1-0.8,2.1-2.1v0c0-1.2-0.8-2.1-2.1-2.1L52.1,46.8L52.1,46.8z"/>
		</g>
		<path fill="#FFFFFF" d="M42.9,19.2l-0.3-1.3c-1-5-6.2-7.4-9.2-8.4c-1.7-0.6-3-0.9-3-0.9l-2.1-0.3l2-0.8c3.7-1.4,7.1-1.7,10-0.7
			c2.9,1,4.5,2.9,5.3,3.9c1.9-1.4,4.3-1.7,7.1-0.7c2.1,0.7,3.7,1.9,3.7,2l1.6,1.3l-2-0.2c-7.7-0.6-12.2,5-12.3,5.1L42.9,19.2z
			 M33.9,8.3c3,1,8.1,3.4,9.7,8.2c1.5-1.5,5-4.4,10.3-4.7c-0.5-0.2-1-0.5-1.6-0.7c-2.6-0.9-4.8-0.6-6.5,0.9l-0.6,0.5l-0.4-0.7
			c0,0-1.6-2.7-4.9-3.9c-2.1-0.7-4.5-0.7-7.2,0C33.1,8.1,33.5,8.2,33.9,8.3z"/>
	</g>
</g>
</svg>
